{"glyphs":{"0":{"ha":653,"x_min":69,"x_max":642,"o":"m 447 490 q 458 619 454 565 q 463 711 463 672 q 458 771 463 747 q 445 808 454 794 q 421 826 436 821 q 385 831 406 831 q 333 818 353 831 q 300 769 313 806 q 279 665 288 732 q 261 490 271 599 q 251 358 254 414 q 247 264 247 303 q 264 165 247 189 q 324 142 281 142 q 376 155 356 142 q 408 206 396 168 q 429 311 421 243 q 447 490 438 379 m 633 497 q 606 274 622 369 q 555 115 589 178 q 463 19 521 51 q 311 -12 406 -12 q 197 8 243 -12 q 122 71 150 29 q 82 176 94 113 q 69 324 69 239 q 78 497 69 401 q 104 711 89 619 q 153 863 119 803 q 244 954 186 924 q 399 985 303 985 q 515 965 468 985 q 590 904 563 944 q 630 804 618 864 q 642 664 642 744 q 633 497 642 589 z "},"1":{"ha":653,"x_min":82,"x_max":575,"o":"m 82 0 l 94 157 l 257 157 l 314 800 l 132 731 l 146 903 l 315 972 l 514 972 l 442 157 l 575 157 l 563 0 l 82 0 z "},"2":{"ha":653,"x_min":57,"x_max":600,"o":"m 57 0 l 72 175 l 289 439 q 357 524 332 488 q 395 592 382 560 q 413 658 408 625 q 417 733 417 692 q 393 805 417 782 q 311 828 369 828 q 230 819 275 828 q 151 801 185 810 l 165 963 q 190 967 171 964 q 235 975 210 971 q 290 982 261 979 q 344 985 319 985 q 542 925 485 985 q 600 750 600 865 q 599 723 600 736 q 597 694 599 710 q 588 610 593 646 q 569 541 582 574 q 533 474 556 508 q 474 393 511 439 l 285 158 l 554 158 l 542 0 l 57 0 z "},"3":{"ha":653,"x_min":69,"x_max":586,"o":"m 565 331 q 544 172 565 238 q 485 66 524 107 q 390 6 446 25 q 264 -12 333 -12 q 207 -10 239 -12 q 146 -3 175 -7 q 95 5 117 1 q 69 10 74 8 l 83 167 q 115 160 96 164 q 158 151 135 156 q 206 144 181 147 q 254 142 232 142 q 347 187 315 142 q 378 317 378 232 q 356 403 378 376 q 278 429 333 429 l 171 429 l 183 581 l 276 581 q 371 622 342 581 q 400 738 400 663 q 380 808 400 785 q 313 831 360 831 q 222 823 267 831 q 146 808 178 815 l 160 964 q 185 969 165 965 q 231 976 204 972 q 288 982 258 979 q 344 985 318 985 q 446 974 401 985 q 522 936 490 963 q 569 867 553 910 q 586 760 586 824 q 581 685 586 725 q 560 610 575 646 q 522 548 546 575 q 461 510 497 521 q 538 452 511 494 q 565 331 565 410 z "},"4":{"ha":653,"x_min":74,"x_max":626,"o":"m 529 217 l 511 0 l 324 0 l 342 217 l 74 217 l 89 392 l 271 972 l 451 972 l 264 374 l 356 374 l 410 635 l 565 635 l 543 374 l 626 374 l 613 217 l 529 217 z "},"5":{"ha":653,"x_min":69,"x_max":603,"o":"m 339 815 l 321 613 l 328 613 q 437 600 390 613 q 514 560 483 588 q 560 485 544 532 q 575 372 575 439 q 553 185 575 260 q 491 67 531 111 q 397 6 451 24 q 276 -12 342 -12 q 220 -10 250 -12 q 162 -5 190 -8 q 109 3 133 -1 q 69 10 85 7 l 83 168 q 153 153 103 164 q 261 143 203 143 q 358 196 328 143 q 388 344 388 249 q 381 407 388 383 q 360 444 374 431 q 328 461 347 457 q 285 465 308 465 l 124 465 l 168 972 l 603 972 l 589 815 l 339 815 z "},"6":{"ha":653,"x_min":76,"x_max":619,"o":"m 615 299 q 581 149 607 210 q 515 53 556 89 q 422 3 475 18 q 307 -12 369 -12 q 213 3 256 -12 q 140 60 169 19 q 93 169 110 100 q 76 342 76 238 q 77 369 76 349 q 79 415 78 390 q 82 463 81 440 q 83 493 83 485 q 124 734 96 639 q 199 885 153 829 q 313 963 246 940 q 469 985 379 985 q 507 983 486 985 q 548 980 528 982 q 585 975 568 978 q 613 969 603 972 l 600 813 q 535 826 572 819 q 450 832 499 832 q 383 821 411 832 q 335 783 354 810 q 302 713 315 757 q 279 601 289 668 q 341 627 308 617 q 410 638 374 638 q 571 576 522 638 q 619 383 619 514 q 615 299 619 344 m 363 488 q 310 481 335 488 q 265 464 286 474 q 258 364 260 407 q 256 288 256 321 q 260 210 256 239 q 275 165 265 181 q 298 145 285 150 q 329 140 311 140 q 374 150 354 140 q 406 186 393 160 q 427 257 419 213 q 435 371 435 301 q 417 460 435 432 q 363 488 400 488 z "},"7":{"ha":653,"x_min":113,"x_max":613,"o":"m 310 0 l 113 0 l 413 810 l 119 810 l 133 972 l 613 972 l 596 782 l 310 0 z "},"8":{"ha":653,"x_min":47,"x_max":646,"o":"m 443 326 q 438 375 443 354 q 416 410 432 396 q 373 432 400 425 q 303 439 346 439 q 271 414 285 428 q 248 377 257 400 q 235 320 239 354 q 231 236 231 286 q 253 160 231 181 q 321 139 275 139 q 383 151 360 139 q 420 188 407 164 q 438 247 433 213 q 443 326 443 282 m 464 751 q 448 817 464 799 q 388 836 432 836 q 311 801 338 836 q 285 672 285 765 q 308 601 285 626 q 403 576 331 576 q 434 607 422 588 q 452 650 446 626 q 461 700 458 674 q 464 751 464 726 m 628 325 q 612 185 628 247 q 558 78 596 122 q 460 11 521 35 q 311 -12 400 -12 q 112 53 176 -12 q 47 243 47 118 q 58 347 47 303 q 88 421 69 390 q 133 470 107 451 q 190 497 160 489 q 153 528 169 508 q 125 575 136 549 q 108 630 114 601 q 103 686 103 658 q 124 824 103 767 q 183 916 144 881 q 277 968 222 951 q 399 985 332 985 q 497 974 451 985 q 575 935 542 963 q 627 863 608 908 q 646 750 646 818 q 642 703 646 735 q 626 635 639 671 q 588 567 613 600 q 518 519 563 535 q 603 447 578 501 q 628 325 628 392 z "},"9":{"ha":653,"x_min":81,"x_max":625,"o":"m 83 674 q 117 825 92 765 q 184 920 143 885 q 278 970 225 956 q 393 985 331 985 q 488 971 446 985 q 561 919 531 957 q 608 815 592 881 q 625 644 625 749 q 624 618 625 639 q 622 572 624 597 q 619 526 621 547 q 618 497 618 504 q 576 233 604 333 q 504 78 549 133 q 397 6 460 24 q 247 -12 333 -12 q 209 -11 231 -12 q 167 -7 188 -10 q 128 -1 146 -4 q 100 4 110 1 l 114 161 q 178 147 140 154 q 265 140 217 140 q 325 149 300 140 q 368 182 350 157 q 398 252 386 207 q 419 371 410 297 q 359 344 392 354 q 290 335 326 335 q 128 404 176 335 q 81 600 81 474 q 81 636 81 618 q 83 674 81 654 m 336 485 q 388 491 364 485 q 433 508 413 497 q 441 612 439 567 q 443 692 443 657 q 438 770 443 742 q 424 813 433 799 q 401 829 415 826 q 369 832 388 832 q 328 822 347 832 q 294 786 308 813 q 272 715 281 760 q 264 601 264 671 q 281 513 264 540 q 336 485 299 485 z "}," ":{"ha":389,"x_min":0,"x_max":0,"o":""},"#":{"ha":689,"x_min":33,"x_max":681,"o":"m 407 590 l 324 590 l 307 396 l 390 396 l 407 590 m 553 236 l 533 0 l 357 0 l 376 236 l 293 236 l 274 0 l 97 0 l 117 236 l 33 236 l 47 396 l 131 396 l 147 590 l 64 590 l 78 750 l 161 750 l 181 972 l 357 972 l 338 750 l 421 750 l 440 972 l 617 972 l 597 750 l 681 750 l 667 590 l 583 590 l 567 396 l 650 396 l 636 236 l 553 236 z "},"$":{"ha":653,"x_min":74,"x_max":615,"o":"m 218 -153 l 231 -10 q 146 -3 188 -8 q 74 10 104 1 l 89 175 q 166 160 121 167 q 251 154 211 154 q 365 188 331 154 q 399 294 399 221 q 297 411 399 390 q 162 483 208 431 q 115 632 115 536 q 163 819 115 746 q 311 922 211 893 l 326 1083 l 500 1083 l 486 939 q 555 931 518 936 q 615 919 592 926 l 601 756 q 563 763 585 760 q 517 770 540 767 q 472 775 494 774 q 431 776 449 776 q 382 772 404 776 q 344 757 360 768 q 319 724 328 746 q 311 667 311 703 q 331 603 311 626 q 399 568 350 579 q 481 542 444 558 q 542 497 517 525 q 580 430 567 469 q 593 333 593 390 q 579 201 593 257 q 540 106 565 144 q 481 43 515 67 q 406 7 446 19 l 392 -153 l 218 -153 z "},"%":{"ha":1272,"x_min":133,"x_max":1194,"o":"m 421 689 q 425 738 424 717 q 426 775 426 758 q 413 844 426 826 q 369 861 400 861 q 335 855 349 861 q 313 830 322 849 q 298 777 304 811 q 288 689 292 743 q 283 640 285 661 q 282 601 282 619 q 294 534 282 551 q 339 517 307 517 q 374 524 360 517 q 397 551 388 532 q 411 604 406 571 q 421 689 417 638 m 572 694 q 554 574 567 629 q 515 479 542 519 q 444 416 489 439 q 328 393 399 393 q 235 410 272 393 q 175 458 197 428 q 143 532 153 489 q 133 626 133 575 q 143 771 133 706 q 180 884 153 836 q 256 958 207 932 q 381 985 304 985 q 474 969 436 985 q 533 925 511 954 q 565 855 556 896 q 575 763 575 814 q 575 730 575 747 q 572 694 575 713 m 535 0 l 371 0 l 796 972 l 960 972 l 535 0 m 1040 283 q 1044 332 1043 311 q 1046 369 1046 353 q 1033 438 1046 421 q 989 456 1019 456 q 955 449 968 456 q 933 424 942 443 q 917 372 924 406 q 907 283 911 338 q 903 197 903 232 q 915 129 903 147 q 958 111 926 111 q 993 119 979 111 q 1016 146 1007 126 q 1031 199 1025 165 q 1040 283 1036 232 m 1192 289 q 1174 169 1186 224 q 1135 74 1161 114 q 1063 10 1108 33 q 947 -12 1018 -12 q 854 5 892 -12 q 794 53 817 22 q 763 126 772 83 q 753 221 753 169 q 763 365 753 300 q 799 478 772 431 q 875 553 826 526 q 1000 579 924 579 q 1093 564 1056 579 q 1153 519 1131 549 q 1185 449 1175 490 q 1194 357 1194 408 q 1194 324 1194 342 q 1192 289 1194 307 z "},"&":{"ha":715,"x_min":71,"x_max":735,"o":"m 75 311 q 90 410 81 369 q 116 478 100 450 q 155 525 132 507 q 208 557 178 543 q 172 588 188 569 q 148 627 157 606 q 134 672 139 649 q 129 717 129 696 l 129 729 q 156 856 136 807 q 210 934 176 906 q 292 973 244 963 q 404 983 340 983 q 458 982 431 983 q 512 978 486 981 q 560 972 538 975 q 597 965 582 968 l 583 807 q 559 812 578 808 q 517 818 540 815 q 469 824 493 821 q 431 826 446 826 q 375 822 397 826 q 340 803 353 817 q 322 765 326 789 q 317 706 317 742 q 338 641 317 658 q 418 624 360 624 l 735 624 l 721 467 l 619 467 l 579 18 q 455 -4 522 6 q 304 -14 388 -14 q 126 46 182 -14 q 71 232 71 106 q 72 270 71 247 q 75 311 72 293 m 383 467 q 331 458 354 467 q 292 424 307 449 q 268 356 276 399 q 260 246 260 313 q 278 169 260 194 q 342 143 297 143 q 384 146 365 143 q 415 153 403 149 l 443 467 l 383 467 l 383 467 z "},"’":{"ha":326,"x_min":79,"x_max":342,"o":"m 214 601 l 79 601 l 140 819 l 154 972 l 342 972 l 328 819 l 214 601 z "},"(":{"ha":451,"x_min":78,"x_max":474,"o":"m 83 486 q 151 839 100 681 q 310 1139 203 997 l 474 1139 q 390 992 424 1065 q 332 839 356 918 q 294 673 308 760 q 271 486 279 586 q 263 383 265 432 q 261 286 261 333 q 283 50 261 158 q 360 -167 306 -58 l 210 -167 q 110 77 142 -49 q 78 351 78 203 q 79 417 78 383 q 83 486 81 450 z "},")":{"ha":451,"x_min":33,"x_max":429,"o":"m 424 486 q 356 133 407 292 q 197 -167 304 -25 l 33 -167 q 117 -19 83 -93 q 175 133 151 54 q 213 299 199 213 q 236 486 228 386 q 244 590 242 540 q 246 686 246 639 q 224 922 246 814 q 147 1139 201 1031 l 297 1139 q 397 895 365 1021 q 429 621 429 769 q 428 556 429 589 q 424 486 426 522 z "},"*":{"ha":729,"x_min":83,"x_max":701,"o":"m 515 689 q 585 604 547 650 q 650 525 622 558 l 503 422 l 392 613 q 363 565 378 590 q 333 513 347 539 q 304 463 318 488 q 278 419 290 439 l 133 528 l 271 686 q 174 706 224 697 q 83 722 125 714 l 142 892 l 322 813 q 310 917 318 861 q 300 1014 303 972 l 486 1014 l 465 813 q 559 851 510 829 q 649 888 608 872 l 701 719 l 515 689 z "},"+":{"ha":778,"x_min":111,"x_max":711,"o":"m 489 340 l 469 121 l 300 121 l 319 340 l 111 340 l 125 500 l 333 500 l 353 719 l 522 719 l 503 500 l 711 500 l 697 340 l 489 340 z "},",":{"ha":347,"x_min":-18,"x_max":279,"o":"m 117 -208 l -18 -208 l 56 0 l 71 181 l 279 181 l 264 0 l 117 -208 z "},"-":{"ha":688,"x_min":119,"x_max":613,"o":"m 119 340 l 133 500 l 613 500 l 599 340 l 119 340 z "},".":{"ha":347,"x_min":56,"x_max":279,"o":"m 56 0 l 71 181 l 279 181 l 264 0 l 56 0 z "},"/":{"ha":451,"x_min":-54,"x_max":563,"o":"m 383 1125 l 563 1125 l 124 -153 l -54 -153 l 383 1125 z "},":":{"ha":347,"x_min":56,"x_max":324,"o":"m 56 0 l 71 181 l 279 181 l 264 0 l 56 0 m 100 514 l 115 694 l 324 694 l 308 514 l 100 514 z "},";":{"ha":347,"x_min":-18,"x_max":324,"o":"m 117 -208 l -18 -208 l 56 0 l 71 181 l 279 181 l 264 0 l 117 -208 m 100 514 l 115 694 l 324 694 l 308 514 l 100 514 z "},"<":{"ha":764,"x_min":119,"x_max":717,"o":"m 119 349 l 140 575 l 717 810 l 700 626 l 271 465 l 672 303 l 656 119 l 119 349 z "},"=":{"ha":764,"x_min":107,"x_max":701,"o":"m 107 201 l 121 361 l 676 361 l 663 201 l 107 201 m 132 479 l 146 639 l 701 639 l 688 479 l 132 479 z "},">":{"ha":764,"x_min":100,"x_max":696,"o":"m 100 119 l 117 306 l 546 468 l 144 629 l 161 810 l 696 575 l 675 349 l 100 119 z "},"?":{"ha":528,"x_min":97,"x_max":538,"o":"m 100 0 l 115 181 l 324 181 l 308 0 l 100 0 m 536 733 q 527 671 533 697 q 510 622 521 644 q 483 579 499 600 q 444 533 467 558 l 333 411 l 324 317 l 136 317 l 150 468 l 274 604 q 310 647 296 629 q 334 681 325 664 q 347 715 343 697 q 350 758 350 733 q 329 810 350 794 q 246 826 308 826 q 176 820 218 826 q 97 806 133 814 l 111 965 q 148 972 125 968 q 196 978 171 975 q 247 983 221 981 q 290 985 272 985 q 392 976 347 985 q 470 946 438 968 q 520 883 503 924 q 538 779 538 843 q 538 757 538 768 q 536 733 538 746 z "},"@":{"ha":1171,"x_min":126,"x_max":1106,"o":"m 681 613 q 655 617 672 615 q 617 619 638 619 q 558 571 579 619 q 538 419 538 522 q 549 358 538 375 q 590 340 561 340 q 629 349 615 340 q 651 372 643 358 q 661 401 658 385 q 665 433 664 418 l 681 613 m 1101 557 q 1082 406 1094 478 q 1042 280 1069 335 q 967 193 1015 225 q 840 161 919 161 q 799 167 821 161 q 756 188 776 174 q 719 224 735 201 q 696 279 703 247 q 674 252 686 267 q 644 226 663 238 q 599 208 625 215 q 535 200 572 200 q 474 208 504 200 q 422 238 444 215 q 384 302 399 261 q 369 408 369 343 q 393 592 369 524 q 458 697 417 660 q 554 744 499 733 q 674 756 610 756 q 713 754 689 756 q 763 750 738 753 q 812 744 788 747 q 851 736 836 740 l 817 329 q 826 302 817 311 q 849 293 835 293 q 875 299 865 293 q 892 331 885 306 q 906 410 900 357 q 919 557 911 464 q 924 615 922 589 q 925 664 925 640 q 913 753 925 721 q 870 803 901 786 q 785 826 839 821 q 646 831 731 831 q 492 817 551 831 q 395 765 432 803 q 341 658 358 726 q 314 479 324 589 q 309 413 311 443 q 307 357 307 383 q 320 247 307 289 q 363 181 333 204 q 443 150 393 158 q 565 142 493 142 q 669 145 617 142 q 750 151 721 149 l 736 -1 q 694 -6 718 -4 q 646 -9 671 -7 q 597 -12 621 -11 q 553 -12 572 -12 q 356 6 438 -12 q 224 66 275 24 q 150 180 174 108 q 126 358 126 251 q 128 416 126 386 q 132 479 129 446 q 177 724 144 626 q 270 879 210 821 q 423 961 331 938 q 646 985 515 985 q 851 971 765 985 q 994 919 938 957 q 1078 816 1051 882 q 1106 646 1106 750 q 1101 557 1106 606 z "},"A":{"ha":757,"x_min":7,"x_max":722,"o":"m 443 850 l 315 390 l 489 390 l 443 850 m 531 0 l 506 226 l 269 226 l 206 0 l 7 0 l 311 972 l 592 972 l 722 0 l 531 0 z "},"B":{"ha":760,"x_min":83,"x_max":707,"o":"m 503 321 q 494 374 503 353 q 470 409 485 396 q 436 428 456 422 q 394 433 417 433 l 311 433 l 286 158 q 318 157 301 158 q 351 155 333 156 q 388 154 368 154 q 442 167 419 154 q 477 203 464 181 q 497 256 490 225 q 503 321 503 286 m 518 725 q 497 794 518 769 q 438 819 476 819 q 404 819 421 819 q 374 817 388 818 q 344 814 358 815 l 325 589 l 400 589 q 491 624 467 589 q 518 725 515 660 m 693 286 q 660 140 685 197 q 593 48 635 82 q 492 1 551 14 q 357 -12 433 -12 q 265 -11 313 -12 q 176 -7 217 -10 q 83 0 129 -4 l 168 972 q 261 979 215 976 q 344 983 301 982 q 422 985 388 985 q 638 933 569 985 q 707 763 707 881 q 696 656 707 699 q 665 585 685 613 q 620 543 646 557 q 564 524 594 529 q 659 465 622 514 q 696 333 696 417 q 695 310 696 325 q 693 286 694 296 z "},"C":{"ha":601,"x_min":92,"x_max":615,"o":"m 532 10 q 499 3 521 7 q 453 -3 478 0 q 403 -8 428 -6 q 363 -10 379 -10 q 248 5 299 -10 q 163 59 197 19 q 110 168 128 99 q 92 346 92 238 q 93 419 92 381 q 99 501 94 457 q 140 755 113 660 q 212 900 168 850 q 319 966 256 950 q 467 982 382 982 q 503 980 481 982 q 548 975 525 978 q 590 969 571 972 q 615 963 608 965 l 601 793 q 519 809 567 803 q 435 815 472 815 q 383 805 406 815 q 342 761 360 794 q 313 664 325 728 q 290 492 300 600 q 288 457 289 482 q 285 404 286 432 q 283 353 283 376 q 282 324 282 331 q 288 238 282 271 q 305 188 293 206 q 335 163 317 169 q 376 157 353 157 q 422 159 397 157 q 469 165 446 161 q 513 172 493 168 q 547 178 533 175 l 532 10 z "},"D":{"ha":758,"x_min":83,"x_max":724,"o":"m 524 492 q 532 650 532 590 q 525 740 532 707 q 506 791 518 774 q 474 813 493 808 q 431 818 456 818 q 395 817 411 818 q 368 815 379 817 q 344 813 354 814 l 288 160 q 307 157 294 158 q 333 155 318 156 q 371 154 349 154 q 428 169 403 154 q 472 223 453 185 q 503 326 490 261 q 524 492 515 392 m 718 501 q 676 246 704 346 q 603 88 649 146 q 494 8 558 31 q 344 -14 431 -14 q 263 -12 308 -14 q 176 -7 217 -10 q 83 0 131 -3 l 168 972 q 263 979 217 975 q 344 984 303 982 q 415 986 386 986 q 542 972 485 986 q 639 919 599 958 q 701 810 679 881 q 724 628 724 740 q 722 568 724 600 q 718 501 721 536 z "},"E":{"ha":664,"x_min":83,"x_max":665,"o":"m 83 0 l 168 972 l 665 972 l 651 822 l 344 822 l 324 576 l 596 576 l 582 428 l 310 428 l 286 150 l 593 150 l 581 0 l 83 0 z "},"F":{"ha":671,"x_min":104,"x_max":686,"o":"m 365 822 l 343 563 l 615 563 l 601 413 l 329 413 l 294 0 l 104 0 l 189 972 l 686 972 l 672 822 l 365 822 z "},"G":{"ha":708,"x_min":92,"x_max":672,"o":"m 618 13 q 498 -6 561 1 q 378 -12 435 -12 q 253 3 307 -12 q 163 60 199 19 q 110 171 128 101 q 92 347 92 240 q 93 420 92 382 q 99 501 94 458 q 142 750 113 656 q 221 897 172 844 q 338 967 269 949 q 499 985 407 985 q 582 980 533 985 q 672 965 631 975 l 658 799 q 564 813 614 808 q 469 818 514 818 q 396 806 426 818 q 345 758 365 793 q 313 658 325 722 q 290 492 300 594 q 282 329 282 394 q 288 242 282 276 q 307 189 294 208 q 340 162 319 169 q 388 154 360 154 q 417 154 403 154 q 446 156 432 154 l 465 375 l 376 375 l 390 539 l 664 539 l 618 13 z "},"H":{"ha":792,"x_min":83,"x_max":765,"o":"m 490 0 l 525 413 l 308 413 l 274 0 l 83 0 l 168 972 l 358 972 l 322 571 l 539 571 l 575 972 l 765 972 l 681 0 l 490 0 z "},"I":{"ha":482,"x_min":35,"x_max":504,"o":"m 35 0 l 47 147 l 144 147 l 203 825 l 106 825 l 119 972 l 504 972 l 490 825 l 393 825 l 335 147 l 432 147 l 419 0 l 35 0 z "},"J":{"ha":578,"x_min":28,"x_max":558,"o":"m 504 363 q 476 175 494 249 q 422 60 457 101 q 332 2 386 18 q 196 -14 278 -14 q 156 -12 179 -14 q 110 -7 133 -10 q 66 -1 88 -4 q 28 7 44 3 l 42 174 q 113 163 71 168 q 188 157 154 157 q 242 167 221 157 q 278 201 264 178 q 301 261 293 224 q 314 353 310 299 l 353 808 l 156 808 l 171 972 l 558 972 l 504 363 l 504 363 z "},"K":{"ha":760,"x_min":83,"x_max":796,"o":"m 499 0 l 335 382 l 303 339 l 274 0 l 83 0 l 168 972 l 358 972 l 329 636 l 582 972 l 796 972 l 468 550 l 718 0 l 499 0 z "},"L":{"ha":583,"x_min":83,"x_max":569,"o":"m 83 0 l 168 972 l 358 972 l 288 161 l 569 161 l 556 0 l 83 0 z "},"M":{"ha":925,"x_min":83,"x_max":899,"o":"m 642 0 l 714 832 l 550 326 l 406 326 l 325 832 l 253 0 l 83 0 l 168 972 l 453 972 l 501 599 l 618 972 l 899 972 l 814 0 l 642 0 z "},"N":{"ha":822,"x_min":83,"x_max":796,"o":"m 435 0 l 319 781 l 251 0 l 83 0 l 168 972 l 444 972 l 561 176 l 631 972 l 796 972 l 711 0 l 435 0 z "},"O":{"ha":789,"x_min":90,"x_max":756,"o":"m 554 490 q 563 651 563 589 q 556 742 563 707 q 536 799 550 778 q 502 828 522 819 q 453 836 482 836 q 389 822 415 836 q 344 770 363 808 q 313 665 325 732 q 290 490 300 597 q 282 331 282 397 q 308 177 282 218 q 392 136 335 136 q 456 152 429 136 q 501 208 482 168 q 533 317 519 249 q 554 490 546 385 m 749 497 q 719 274 738 369 q 660 114 700 178 q 554 18 621 50 q 379 -14 488 -14 q 242 8 297 -14 q 153 74 186 31 q 105 183 119 118 q 90 336 90 249 q 99 497 90 410 q 128 711 110 619 q 188 864 147 803 q 294 956 228 925 q 467 986 361 986 q 603 965 549 986 q 692 899 658 943 q 741 790 726 856 q 756 636 756 724 q 753 569 756 604 q 749 497 751 535 z "},"P":{"ha":722,"x_min":83,"x_max":719,"o":"m 524 653 q 525 674 525 664 q 525 696 525 685 q 506 788 525 757 q 435 819 486 819 q 367 815 390 819 q 344 811 353 813 l 317 499 l 404 499 q 485 540 453 499 q 524 653 517 582 m 717 663 q 685 508 708 571 q 622 407 663 446 q 522 351 582 368 q 382 335 463 335 l 303 335 l 274 0 l 83 0 l 168 972 q 253 979 208 975 q 336 984 290 982 q 425 986 382 986 q 562 969 506 986 q 653 917 618 951 q 703 833 688 883 q 719 719 719 783 q 719 692 719 706 q 717 663 718 678 z "},"Q":{"ha":789,"x_min":90,"x_max":756,"o":"m 749 497 q 728 326 740 404 q 694 189 717 249 q 639 86 672 129 q 553 18 606 43 l 682 0 l 667 -172 l 324 -11 q 213 22 257 -4 q 141 90 168 47 q 102 195 114 133 q 90 336 90 257 q 99 497 90 410 q 128 711 110 619 q 188 864 147 803 q 294 956 228 925 q 467 986 361 986 q 603 965 549 986 q 692 899 658 943 q 741 790 726 856 q 756 636 756 724 q 753 569 756 604 q 749 497 751 535 m 554 490 q 563 651 563 589 q 556 742 563 707 q 536 799 550 778 q 502 828 522 819 q 453 836 482 836 q 389 822 415 836 q 344 770 363 808 q 313 665 325 732 q 290 490 300 597 q 282 331 282 397 q 308 177 282 218 q 392 136 335 136 q 456 152 429 136 q 501 208 482 168 q 533 317 519 249 q 554 490 546 385 z "},"R":{"ha":740,"x_min":83,"x_max":711,"o":"m 708 678 q 659 493 697 560 q 554 396 621 426 l 692 0 l 482 0 l 368 367 l 306 367 l 274 0 l 83 0 l 168 972 q 253 979 208 975 q 336 984 290 982 q 425 986 382 986 q 645 924 579 986 q 711 733 711 861 q 710 706 711 719 q 708 678 710 693 m 515 668 q 517 692 517 681 q 517 714 517 703 q 498 795 517 771 q 429 819 479 819 q 371 815 396 819 q 344 811 356 813 l 319 531 l 407 531 q 479 565 450 531 q 515 668 508 600 z "},"S":{"ha":589,"x_min":29,"x_max":607,"o":"m 575 350 q 574 326 575 339 q 572 301 574 314 q 535 140 563 201 q 464 46 508 79 q 360 1 419 13 q 225 -10 300 -10 q 176 -8 203 -10 q 122 -4 149 -7 q 70 3 94 -1 q 29 11 46 7 l 44 176 q 83 168 60 172 q 131 161 106 164 q 181 156 156 158 q 225 154 206 154 q 337 190 294 154 q 379 313 379 225 q 351 392 379 369 q 272 426 324 414 q 124 510 168 451 q 81 656 81 568 q 165 903 81 825 q 433 982 249 982 q 477 981 453 982 q 525 976 501 979 q 571 970 549 974 q 607 963 593 967 l 593 797 q 509 813 557 808 q 408 818 461 818 q 308 785 342 818 q 275 676 275 751 q 297 619 275 636 q 375 589 318 601 q 456 561 419 579 q 519 515 493 543 q 560 446 546 486 q 575 350 575 406 z "},"T":{"ha":618,"x_min":69,"x_max":675,"o":"m 460 804 l 390 0 l 200 0 l 269 804 l 69 804 l 85 972 l 675 972 l 660 804 l 460 804 z "},"U":{"ha":771,"x_min":99,"x_max":751,"o":"m 692 299 q 661 153 683 213 q 599 58 639 94 q 503 6 560 22 q 371 -10 447 -10 q 260 3 311 -10 q 174 47 210 17 q 119 128 139 78 q 99 250 99 178 q 99 274 99 261 q 101 299 100 286 l 161 972 l 351 972 l 292 293 q 290 268 290 278 q 289 251 289 258 q 385 154 289 154 q 467 184 439 154 q 500 272 494 214 l 561 972 l 751 972 l 692 299 z "},"V":{"ha":753,"x_min":106,"x_max":789,"o":"m 508 0 l 215 0 l 106 972 l 301 972 l 374 136 l 599 972 l 789 972 l 508 0 z "},"W":{"ha":872,"x_min":96,"x_max":881,"o":"m 749 0 l 481 0 l 450 326 l 353 0 l 96 0 l 133 972 l 300 972 l 265 149 l 400 563 l 558 563 l 610 149 l 721 972 l 881 972 l 749 0 z "},"X":{"ha":729,"x_min":7,"x_max":769,"o":"m 482 0 l 382 322 l 217 0 l 7 0 l 300 504 l 119 972 l 331 972 l 419 685 l 563 972 l 769 972 l 496 506 l 694 0 l 482 0 z "},"Y":{"ha":738,"x_min":85,"x_max":794,"o":"m 486 428 l 450 0 l 256 0 l 292 428 l 85 972 l 286 972 l 407 597 l 594 972 l 794 972 l 486 428 z "},"Z":{"ha":647,"x_min":35,"x_max":669,"o":"m 260 165 l 585 165 l 571 0 l 35 0 l 50 185 l 444 807 l 136 807 l 151 972 l 669 972 l 653 788 l 260 165 z "},"[":{"ha":458,"x_min":68,"x_max":488,"o":"m 68 -167 l 182 1139 l 488 1139 l 474 979 l 349 979 l 264 0 l 389 0 l 374 -167 l 68 -167 z "},"\\":{"ha":451,"x_min":49,"x_max":458,"o":"m 49 1125 l 228 1125 l 458 -153 l 279 -153 l 49 1125 z "},"]":{"ha":458,"x_min":26,"x_max":446,"o":"m 26 -167 l 42 0 l 167 0 l 251 979 l 126 979 l 140 1139 l 446 1139 l 332 -167 l 26 -167 z "},"^":{"ha":690,"x_min":78,"x_max":685,"o":"m 479 583 l 418 917 l 274 583 l 78 583 l 306 1056 l 547 1056 l 685 583 l 479 583 z "},"_":{"ha":708,"x_min":-29,"x_max":683,"o":"m -29 -236 l -15 -69 l 683 -69 l 669 -236 l -29 -236 z "},"‘":{"ha":326,"x_min":93,"x_max":356,"o":"m 226 971 l 356 971 l 294 753 l 281 600 l 93 600 l 107 753 l 226 971 z "},"a":{"ha":724,"x_min":79,"x_max":672,"o":"m 83 329 q 117 508 93 436 q 183 625 140 581 q 288 688 225 669 q 436 707 350 707 q 555 697 492 707 q 664 674 618 686 l 622 176 q 632 149 622 158 q 672 139 642 139 l 661 0 l 581 0 q 547 3 565 0 q 510 15 528 6 q 478 39 492 24 q 460 79 465 54 q 380 12 425 36 q 272 -12 335 -12 q 126 42 172 -12 q 79 232 79 97 q 83 329 79 278 m 335 146 q 383 161 363 146 q 417 201 403 176 q 439 253 431 225 q 449 307 447 282 l 468 546 q 438 548 453 547 q 410 549 422 549 q 356 537 382 549 q 310 492 331 525 q 278 399 290 458 q 267 246 267 340 q 283 165 267 185 q 335 146 299 146 z "},"b":{"ha":718,"x_min":76,"x_max":674,"o":"m 669 378 q 633 185 660 261 q 561 66 606 110 q 455 5 517 22 q 313 -12 393 -12 q 196 -7 249 -12 q 76 7 143 -1 l 161 972 l 346 972 l 317 642 q 389 690 349 672 q 482 707 429 707 q 627 645 581 707 q 674 461 674 583 q 673 421 674 446 q 669 378 672 396 m 419 549 q 371 535 393 549 q 333 499 349 521 q 308 449 318 476 q 296 397 299 422 l 274 149 q 307 147 290 147 q 339 146 324 146 q 386 153 364 146 q 427 184 408 161 q 460 251 446 207 q 483 365 475 294 q 488 439 488 401 q 470 526 488 504 q 419 549 453 549 z "},"c":{"ha":567,"x_min":83,"x_max":557,"o":"m 497 8 q 418 -7 463 -1 q 336 -12 374 -12 q 233 -2 279 -12 q 153 39 186 8 q 101 124 119 69 q 83 268 83 179 q 103 471 83 388 q 161 607 122 554 q 260 683 200 660 q 400 707 319 707 q 481 701 435 707 q 557 688 526 694 l 543 525 q 508 533 524 529 q 476 539 493 536 q 440 543 460 542 q 394 544 421 544 q 351 536 371 544 q 317 505 332 528 q 292 441 303 482 q 275 333 282 400 q 273 305 274 318 q 272 279 272 292 q 294 178 272 206 q 357 150 315 150 q 445 157 410 150 q 511 169 481 164 l 497 8 z "},"d":{"ha":732,"x_min":82,"x_max":713,"o":"m 88 336 q 120 510 96 439 q 188 624 144 581 q 296 688 232 668 q 449 707 360 707 q 477 706 464 707 q 504 704 490 706 l 528 972 l 713 972 l 628 0 l 478 0 l 469 79 q 387 12 433 36 q 279 -12 340 -12 q 128 42 174 -12 q 82 228 82 97 q 83 280 82 251 q 88 336 85 308 m 342 146 q 396 163 372 146 q 435 207 419 181 q 460 264 451 233 q 471 319 469 294 l 490 544 q 455 548 472 547 q 422 549 438 549 q 364 537 392 549 q 315 492 336 525 q 283 401 294 460 q 271 250 271 343 q 288 166 271 186 q 342 146 304 146 z "},"e":{"ha":672,"x_min":82,"x_max":638,"o":"m 638 506 q 623 404 638 449 q 576 329 608 360 q 492 283 544 299 q 364 267 439 267 q 317 267 342 267 q 267 271 293 268 l 267 260 q 290 170 267 194 q 372 146 313 146 q 469 153 419 146 q 551 167 519 160 l 538 11 q 497 2 521 7 q 449 -6 474 -3 q 401 -10 425 -8 q 358 -12 378 -12 q 245 -2 296 -12 q 158 38 194 8 q 102 123 122 68 q 82 267 82 178 q 86 347 82 304 q 118 512 94 443 q 181 624 142 581 q 275 687 219 667 q 403 707 331 707 q 522 686 476 707 q 594 635 568 665 q 628 569 619 604 q 638 506 638 533 m 386 554 q 321 524 346 554 q 281 415 296 493 q 346 411 317 411 q 426 427 396 411 q 456 483 456 443 q 444 533 456 513 q 386 554 432 554 z "},"f":{"ha":474,"x_min":-62,"x_max":557,"o":"m 157 538 l 67 538 l 81 694 l 171 694 l 176 750 q 200 867 183 821 q 244 939 217 913 q 311 975 271 965 q 407 985 351 985 q 494 978 451 985 q 557 968 538 972 l 544 811 q 494 822 522 817 q 428 826 465 826 q 379 809 393 826 q 363 763 365 792 l 357 694 l 507 694 l 493 538 l 343 538 l 294 -18 q 273 -131 289 -87 q 228 -201 257 -175 q 156 -236 199 -226 q 54 -246 113 -246 q -6 -244 22 -246 q -62 -239 -35 -242 l -49 -82 q -4 -86 -31 -85 q 38 -87 22 -87 q 90 -74 75 -87 q 108 -25 106 -61 l 157 538 z "},"g":{"ha":732,"x_min":83,"x_max":686,"o":"m 629 28 q 602 -112 622 -56 q 547 -203 582 -168 q 458 -252 511 -237 q 335 -267 406 -267 q 279 -265 308 -267 q 222 -259 250 -262 q 167 -251 193 -256 q 122 -243 142 -247 l 136 -93 q 224 -110 182 -103 q 314 -117 265 -117 q 411 -87 383 -117 q 444 14 439 -57 l 449 68 q 374 19 415 36 q 279 1 332 1 q 131 56 178 1 q 83 243 83 110 q 106 465 83 376 q 172 608 128 554 q 286 684 217 661 q 449 707 356 707 q 570 698 514 707 q 686 674 626 689 l 629 28 l 629 28 m 342 160 q 392 174 369 160 q 432 209 415 188 q 458 257 449 231 q 469 308 468 283 l 489 544 q 455 548 472 547 q 422 549 438 549 q 364 538 392 549 q 315 497 336 528 q 283 408 294 465 q 271 260 271 351 q 288 179 271 199 q 342 160 304 160 z "},"h":{"ha":728,"x_min":76,"x_max":671,"o":"m 76 0 l 161 972 l 346 972 l 317 643 q 390 690 349 672 q 482 707 432 707 q 629 656 588 707 q 671 497 671 606 q 670 467 671 482 q 667 417 669 453 l 631 0 l 446 0 l 482 421 q 484 445 483 431 q 485 467 485 460 q 467 531 485 515 q 417 547 450 547 q 369 533 390 547 q 333 498 349 519 q 308 450 317 476 q 296 399 299 424 l 261 0 l 76 0 z "},"i":{"ha":365,"x_min":76,"x_max":353,"o":"m 140 813 l 154 972 l 353 972 l 339 813 l 140 813 m 76 0 l 136 694 l 321 694 l 261 0 l 76 0 z "},"j":{"ha":365,"x_min":-97,"x_max":353,"o":"m 258 -18 q 235 -132 251 -87 q 191 -201 219 -176 q 120 -236 163 -226 q 19 -246 78 -246 q -41 -244 -12 -246 q -97 -239 -69 -242 l -83 -83 q -39 -87 -65 -86 q 3 -87 -12 -87 q 56 -74 40 -87 q 74 -25 71 -61 l 136 694 l 321 694 l 258 -18 m 140 813 l 154 972 l 353 972 l 339 813 l 140 813 z "},"k":{"ha":688,"x_min":76,"x_max":699,"o":"m 447 0 l 315 283 l 282 243 l 261 0 l 76 0 l 161 972 l 346 972 l 304 496 l 482 694 l 699 694 l 442 415 l 653 0 l 447 0 z "},"l":{"ha":403,"x_min":90,"x_max":367,"o":"m 354 4 q 303 -3 339 1 q 226 -7 267 -7 q 119 29 147 -7 q 90 140 90 65 q 91 172 90 156 q 93 206 92 188 l 161 972 l 346 972 l 282 244 q 278 193 278 203 q 286 162 278 171 q 317 153 294 153 q 347 155 332 153 q 367 158 361 157 l 354 4 z "},"m":{"ha":1042,"x_min":76,"x_max":985,"o":"m 76 0 l 136 694 l 286 694 l 293 624 q 369 683 325 660 q 468 707 413 707 q 568 688 531 707 q 624 626 606 669 q 703 685 658 663 q 810 707 749 707 q 945 660 906 707 q 985 506 985 614 q 984 463 985 489 q 981 417 983 438 l 944 0 l 760 0 l 796 421 q 798 449 797 432 q 799 476 799 467 q 787 532 799 517 q 744 547 775 547 q 703 534 722 547 q 670 501 683 521 q 649 455 657 481 q 638 404 640 429 l 603 0 l 418 0 l 454 421 q 456 449 456 432 q 457 476 457 467 q 445 532 457 517 q 403 547 433 547 q 357 529 376 547 q 324 485 338 511 q 303 429 310 460 q 293 374 296 399 l 261 0 l 76 0 z "},"n":{"ha":728,"x_min":76,"x_max":671,"o":"m 76 0 l 136 694 l 286 694 l 293 621 q 374 683 328 660 q 482 707 421 707 q 629 656 588 707 q 671 497 671 606 q 667 417 671 469 l 631 0 l 446 0 l 482 413 q 484 439 483 424 q 485 467 485 454 q 467 531 485 515 q 417 547 450 547 q 365 529 388 547 q 328 485 343 511 q 304 429 313 460 q 293 374 296 399 l 261 0 l 76 0 z "},"o":{"ha":736,"x_min":86,"x_max":690,"o":"m 690 424 q 690 393 690 408 q 688 361 689 378 q 655 180 678 251 q 592 66 632 108 q 493 7 551 24 q 356 -10 435 -10 q 240 3 290 -10 q 156 50 190 17 q 103 140 121 83 q 86 281 86 196 q 104 470 86 390 q 163 602 122 550 q 266 679 203 654 q 418 704 329 704 q 622 637 554 704 q 690 424 690 569 m 497 340 q 501 417 501 385 q 478 524 501 494 q 404 554 456 554 q 351 544 374 554 q 315 508 329 533 q 292 442 300 483 q 278 340 283 401 q 274 261 274 294 q 294 166 274 192 q 368 140 315 140 q 422 150 400 140 q 460 183 444 160 q 483 244 475 206 q 497 340 492 282 z "},"p":{"ha":721,"x_min":56,"x_max":674,"o":"m 56 -236 l 136 694 l 286 694 l 293 618 q 374 683 329 658 q 482 707 419 707 q 627 645 581 707 q 674 461 674 583 q 673 421 674 446 q 669 378 672 396 q 636 193 660 268 q 570 72 613 118 q 465 7 528 26 q 313 -12 401 -12 q 284 -12 297 -12 q 260 -11 271 -12 l 240 -236 l 56 -236 m 419 549 q 371 534 392 549 q 334 497 350 519 q 308 447 318 474 q 294 394 299 419 l 274 149 q 307 147 290 147 q 339 146 324 146 q 397 159 369 146 q 444 205 424 172 q 476 294 464 238 q 488 439 488 351 q 470 526 488 504 q 419 549 453 549 z "},"q":{"ha":732,"x_min":83,"x_max":686,"o":"m 88 329 q 122 508 97 436 q 190 625 146 581 q 297 688 233 669 q 449 707 361 707 q 570 698 514 707 q 686 674 626 689 l 607 -236 l 422 -236 l 447 56 q 372 6 414 24 q 279 -12 331 -12 q 131 44 178 -12 q 83 235 83 100 q 88 329 83 278 m 342 146 q 392 161 369 146 q 429 199 414 176 q 454 250 444 222 q 468 303 464 278 l 489 544 q 455 548 472 547 q 422 549 438 549 q 364 537 392 549 q 315 492 336 525 q 283 401 294 460 q 271 250 271 343 q 288 166 271 186 q 342 146 304 146 z "},"r":{"ha":490,"x_min":76,"x_max":510,"o":"m 76 0 l 136 694 l 286 694 l 294 607 q 362 680 324 653 q 449 707 400 707 q 485 706 471 707 q 510 701 499 704 l 493 510 q 433 518 463 518 q 335 465 374 518 q 289 328 296 413 l 261 0 l 76 0 z "},"s":{"ha":590,"x_min":51,"x_max":557,"o":"m 540 243 q 518 117 540 167 q 456 39 496 68 q 361 -1 417 10 q 240 -12 306 -12 q 186 -10 214 -12 q 133 -5 158 -8 q 87 2 108 -1 q 51 10 65 6 l 65 167 q 137 151 93 160 q 229 143 181 143 q 316 158 283 143 q 349 217 349 172 q 331 256 349 243 q 267 278 314 268 q 128 347 168 297 q 89 463 89 396 q 165 652 89 597 q 392 707 240 707 q 439 705 414 707 q 487 699 464 703 q 528 692 510 696 q 557 686 547 689 l 543 528 q 474 544 511 538 q 379 551 436 551 q 302 536 325 551 q 279 486 279 521 q 301 453 279 463 q 364 435 322 444 q 503 363 465 413 q 540 243 540 314 z "},"t":{"ha":483,"x_min":60,"x_max":488,"o":"m 335 535 l 310 236 q 308 208 308 217 q 307 196 307 199 q 360 146 307 146 q 407 150 382 146 q 447 158 432 154 l 435 4 q 410 -1 428 3 q 372 -6 393 -4 q 329 -10 351 -8 q 288 -12 307 -12 q 206 -1 238 -12 q 154 31 174 10 q 127 84 135 53 q 119 156 119 115 q 120 185 119 169 q 122 215 121 200 l 150 535 l 60 535 l 74 694 l 164 694 l 179 861 l 364 861 l 349 694 l 488 694 l 474 535 l 335 535 z "},"u":{"ha":719,"x_min":89,"x_max":675,"o":"m 314 694 l 279 288 q 276 251 278 268 q 275 225 275 233 q 292 162 275 176 q 340 147 308 147 q 391 165 369 147 q 427 209 413 183 q 449 265 442 235 q 458 321 457 296 l 490 694 l 675 694 l 615 0 l 465 0 l 458 69 q 380 10 425 33 q 275 -12 335 -12 q 130 40 171 -12 q 89 200 89 93 q 90 232 89 215 q 92 268 90 249 l 129 694 l 314 694 z "},"v":{"ha":683,"x_min":74,"x_max":701,"o":"m 461 -1 l 193 -1 l 74 693 l 264 693 l 339 132 l 513 693 l 701 693 l 461 -1 z "},"w":{"ha":892,"x_min":67,"x_max":917,"o":"m 750 0 l 507 0 l 461 342 l 350 0 l 114 0 l 67 694 l 249 694 l 268 164 l 404 569 l 568 569 l 628 164 l 740 694 l 917 694 l 750 0 z "},"x":{"ha":701,"x_min":21,"x_max":688,"o":"m 444 0 l 357 210 l 231 0 l 21 0 l 258 363 l 103 694 l 310 694 l 381 529 l 479 694 l 688 694 l 471 376 l 653 0 l 444 0 z "},"y":{"ha":685,"x_min":74,"x_max":703,"o":"m 460 -58 q 246 -246 399 -246 q 216 -245 235 -246 q 178 -244 197 -244 q 144 -242 160 -243 q 121 -239 128 -240 l 135 -82 q 203 -86 168 -86 q 276 -25 258 -86 l 283 0 l 236 0 l 74 694 l 268 694 l 356 154 l 521 694 l 703 694 l 460 -58 z "},"z":{"ha":581,"x_min":28,"x_max":585,"o":"m 251 149 l 524 149 l 511 0 l 28 0 l 40 154 l 363 546 l 103 546 l 115 694 l 585 694 l 571 528 l 251 149 z "},"{":{"ha":479,"x_min":61,"x_max":501,"o":"m 158 288 q 128 367 158 344 q 61 389 97 389 l 78 583 q 153 610 117 583 q 194 700 189 636 l 214 931 q 281 1098 225 1047 q 426 1149 336 1149 q 466 1147 440 1149 q 501 1142 492 1144 l 489 992 q 472 994 482 993 q 450 996 461 996 q 393 944 397 996 l 369 672 q 351 590 365 625 q 315 533 336 556 q 269 498 294 510 q 221 482 244 486 q 264 467 243 479 q 301 436 285 456 q 328 388 318 417 q 338 319 338 358 q 337 301 338 313 q 335 279 336 289 l 315 56 q 313 33 314 43 q 313 21 313 24 q 361 -24 313 -24 q 383 -22 372 -24 q 400 -19 393 -21 l 388 -169 q 350 -174 376 -172 q 310 -176 324 -176 q 245 -166 276 -176 q 189 -133 214 -156 q 149 -74 164 -110 q 135 11 135 -39 q 135 31 135 18 q 138 56 136 44 l 153 224 q 154 240 153 231 q 156 260 156 250 q 158 278 157 271 q 158 288 158 286 z "},"|":{"ha":431,"x_min":97,"x_max":389,"o":"m 97 -153 l 208 1125 l 389 1125 l 278 -153 l 97 -153 z "},"}":{"ha":479,"x_min":33,"x_max":474,"o":"m 314 490 q 272 506 293 494 q 235 537 251 517 q 208 585 218 557 q 197 653 197 614 q 198 671 197 660 q 200 693 199 682 l 221 917 q 222 940 222 929 q 222 951 222 950 q 174 996 222 996 q 152 994 163 996 q 135 992 142 993 l 147 1142 q 163 1144 153 1143 q 185 1147 174 1146 q 208 1148 197 1147 q 225 1149 218 1149 q 290 1138 258 1149 q 346 1105 321 1128 q 385 1047 371 1082 q 400 961 400 1011 q 399 941 400 954 q 397 917 399 928 l 381 714 q 378 694 379 703 q 378 682 378 686 q 408 606 378 628 q 474 583 438 583 l 457 389 q 383 363 418 389 q 342 272 349 338 l 321 42 q 256 -126 311 -75 q 108 -176 201 -176 q 69 -174 94 -176 q 33 -169 44 -172 l 46 -19 q 63 -22 53 -21 q 85 -24 74 -24 q 142 28 138 -24 l 165 300 q 185 383 169 349 q 221 440 200 417 q 266 474 242 463 q 314 490 290 486 z "},"~":{"ha":708,"x_min":118,"x_max":636,"o":"m 132 494 q 217 532 183 524 q 282 540 251 540 q 340 532 313 540 q 394 513 368 524 q 447 494 421 503 q 500 486 474 486 q 570 500 536 486 q 636 533 604 514 l 622 367 q 551 333 589 346 q 474 321 513 321 q 415 330 442 321 q 363 349 388 339 q 312 369 338 360 q 257 378 286 378 q 185 363 221 378 q 118 328 150 347 l 132 494 z "},"¡":{"ha":375,"x_min":56,"x_max":338,"o":"m 338 694 l 322 514 l 114 514 l 129 694 l 338 694 m 300 378 l 243 -278 l 56 -278 l 113 378 l 300 378 z "},"¢":{"ha":653,"x_min":115,"x_max":589,"o":"m 274 -153 l 286 -8 q 215 15 247 -1 q 161 65 183 32 q 127 147 139 97 q 115 267 115 196 q 172 573 115 471 q 347 697 229 675 l 360 833 l 533 833 l 521 699 q 558 692 540 696 q 589 686 575 689 l 575 524 q 540 531 556 528 q 508 538 525 535 q 472 542 492 540 q 426 543 453 543 q 383 535 403 543 q 349 503 364 526 q 324 440 335 481 q 307 332 314 399 q 305 303 306 317 q 304 278 304 290 q 326 176 304 204 q 389 149 347 149 q 477 156 442 149 q 543 168 513 163 l 529 7 q 497 -1 514 3 q 460 -7 479 -4 l 447 -153 l 274 -153 z "},"£":{"ha":653,"x_min":57,"x_max":649,"o":"m 388 588 l 532 588 l 518 431 l 374 431 l 350 157 l 590 157 l 578 0 l 57 0 l 69 157 l 160 157 l 183 431 l 94 431 l 108 588 l 197 588 l 201 624 q 228 802 211 732 q 279 912 246 872 q 364 967 313 951 q 494 982 415 982 q 526 981 507 982 q 567 978 544 981 q 610 974 589 976 q 649 968 632 971 l 635 807 q 574 818 606 814 q 525 822 542 822 q 462 816 486 822 q 424 790 438 810 q 404 733 411 769 q 392 633 397 696 l 388 588 z "},"⁄":{"ha":319,"x_min":-164,"x_max":540,"o":"m 0 -139 l -164 -139 l 375 1125 l 540 1125 l 0 -139 z "},"¥":{"ha":653,"x_min":82,"x_max":710,"o":"m 438 368 l 433 306 l 581 306 l 568 160 l 421 160 l 407 0 l 213 0 l 226 160 l 82 160 l 94 306 l 239 306 l 243 368 l 100 368 l 113 514 l 239 514 l 85 972 l 281 972 l 371 663 l 515 972 l 710 972 l 468 514 l 599 514 l 586 368 l 438 368 z "},"ƒ":{"ha":474,"x_min":-62,"x_max":557,"o":"m 157 538 l 67 538 l 81 694 l 171 694 l 176 750 q 200 867 183 821 q 244 939 217 913 q 311 975 271 965 q 407 985 351 985 q 494 978 451 985 q 557 968 538 972 l 544 811 q 494 822 522 817 q 428 826 465 826 q 379 809 393 826 q 363 763 365 792 l 357 694 l 507 694 l 493 538 l 343 538 l 294 -18 q 273 -131 289 -87 q 228 -201 257 -175 q 156 -236 199 -226 q 54 -246 113 -246 q -6 -244 22 -246 q -62 -239 -35 -242 l -49 -82 q -4 -86 -31 -85 q 38 -87 22 -87 q 90 -74 75 -87 q 108 -25 106 -61 l 157 538 z "},"§":{"ha":653,"x_min":90,"x_max":613,"o":"m 107 446 q 132 553 107 508 q 206 635 157 599 q 165 692 178 656 q 153 761 153 729 q 228 933 153 881 q 460 985 304 985 q 547 977 501 985 q 613 964 592 969 l 599 806 q 533 822 568 815 q 440 829 497 829 q 365 816 389 829 q 340 768 340 803 q 358 734 340 749 q 419 711 376 719 q 556 647 515 693 q 597 525 597 600 q 569 417 597 461 q 497 343 542 372 q 538 284 525 322 q 551 214 551 246 q 475 41 551 94 q 244 -12 399 -12 q 201 -10 224 -12 q 157 -5 178 -8 q 119 2 136 -1 q 90 8 101 6 l 104 167 q 171 150 135 157 q 264 143 207 143 q 339 158 315 143 q 363 207 363 172 q 344 240 363 226 q 283 261 326 254 q 147 327 188 279 q 107 446 107 375 m 411 496 q 397 545 411 528 q 351 569 383 563 q 308 531 322 557 q 293 474 293 506 q 306 426 293 443 q 351 401 319 410 q 395 439 379 413 q 411 496 411 465 z "},"¤":{"ha":792,"x_min":46,"x_max":801,"o":"m 146 257 q 124 332 131 292 q 118 417 118 372 q 147 575 118 507 l 46 676 l 164 794 l 256 703 q 424 746 326 746 q 592 703 518 746 l 683 794 l 801 676 l 707 582 q 743 417 743 510 q 707 250 743 325 l 801 157 l 683 39 l 593 128 q 424 88 524 88 q 253 128 322 88 l 164 39 l 46 157 l 146 257 m 560 417 q 526 546 560 494 q 424 597 493 597 q 321 546 354 597 q 288 417 288 494 q 321 288 288 339 q 424 236 354 236 q 484 250 458 236 q 526 288 510 264 q 551 345 543 313 q 560 417 560 378 z "},"'":{"ha":313,"x_min":113,"x_max":328,"o":"m 253 601 l 135 601 l 113 819 l 126 972 l 328 972 l 314 819 l 253 601 z "},"“":{"ha":563,"x_min":93,"x_max":592,"o":"m 221 971 l 356 971 l 294 753 l 281 600 l 93 600 l 107 753 l 221 971 m 457 971 l 592 971 l 531 753 l 517 600 l 329 600 l 343 753 l 457 971 z "},"«":{"ha":646,"x_min":92,"x_max":625,"o":"m 188 128 l 92 415 l 238 703 l 389 703 l 278 415 l 336 128 l 188 128 m 424 128 l 328 415 l 474 703 l 625 703 l 514 415 l 572 128 l 424 128 z "},"‹":{"ha":410,"x_min":92,"x_max":386,"o":"m 188 128 l 92 415 l 238 703 l 386 703 l 278 415 l 339 128 l 188 128 z "},"›":{"ha":410,"x_min":65,"x_max":363,"o":"m 65 128 l 176 415 l 118 703 l 267 703 l 363 415 l 217 128 l 65 128 z "},"ﬁ":{"ha":754,"x_min":-62,"x_max":710,"o":"m 157 538 l 67 538 l 81 694 l 171 694 l 176 750 q 201 867 183 821 q 249 939 218 913 q 326 975 281 965 q 435 985 371 985 q 516 982 476 985 q 590 975 556 979 q 648 967 624 971 q 682 960 672 963 l 668 803 q 588 817 646 808 q 456 826 531 826 q 407 822 425 826 q 379 810 389 818 q 367 791 369 803 q 363 763 364 779 l 357 694 l 710 694 l 650 0 l 465 0 l 511 538 l 343 538 l 294 -18 q 273 -131 289 -87 q 228 -201 257 -175 q 156 -236 199 -226 q 54 -246 113 -246 q -6 -244 22 -246 q -62 -239 -35 -242 l -49 -82 q -4 -86 -31 -85 q 38 -87 22 -87 q 90 -74 75 -87 q 108 -25 106 -61 l 157 538 z "},"ﬂ":{"ha":792,"x_min":-62,"x_max":756,"o":"m 743 4 q 692 -3 728 1 q 615 -7 656 -7 q 508 29 536 -7 q 479 140 479 65 q 480 172 479 156 q 482 206 481 188 l 511 538 l 343 538 l 294 -18 q 273 -131 289 -87 q 228 -201 257 -175 q 156 -236 199 -226 q 54 -246 113 -246 q -6 -244 22 -246 q -62 -239 -35 -242 l -49 -82 q -4 -86 -31 -85 q 38 -87 22 -87 q 90 -74 75 -87 q 108 -25 106 -61 l 157 538 l 67 538 l 81 694 l 171 694 l 176 750 q 201 867 183 821 q 249 939 218 913 q 326 975 281 965 q 435 985 371 985 q 496 981 464 985 q 550 972 528 978 l 735 972 l 671 244 q 667 193 667 203 q 675 162 667 171 q 706 153 683 153 q 735 155 721 153 q 756 158 750 157 l 743 4 m 357 694 l 525 694 l 536 822 q 456 826 499 826 q 407 822 425 826 q 379 810 389 818 q 367 791 369 803 q 363 763 364 779 l 357 694 z "},"–":{"ha":764,"x_min":119,"x_max":689,"o":"m 119 340 l 133 500 l 689 500 l 675 340 l 119 340 z "},"†":{"ha":653,"x_min":101,"x_max":631,"o":"m 224 0 l 269 535 l 101 535 l 115 694 l 283 694 l 308 972 l 489 972 l 464 694 l 631 694 l 617 535 l 450 535 l 404 0 l 224 0 z "},"‡":{"ha":653,"x_min":79,"x_max":632,"o":"m 224 0 l 247 278 l 79 278 l 93 438 l 261 438 l 271 549 l 103 549 l 117 708 l 285 708 l 308 972 l 489 972 l 465 708 l 632 708 l 618 549 l 451 549 l 442 438 l 608 438 l 594 278 l 428 278 l 404 0 l 224 0 z "},"·":{"ha":347,"x_min":85,"x_max":308,"o":"m 85 339 l 100 519 l 308 519 l 293 339 l 85 339 z "},"¶":{"ha":771,"x_min":104,"x_max":765,"o":"m 449 0 l 274 0 l 315 492 l 289 492 q 227 500 260 492 q 167 531 194 508 q 122 594 140 553 q 104 699 104 635 q 125 843 104 788 q 181 930 146 899 q 264 973 217 961 q 363 985 311 985 q 428 983 397 985 q 482 979 458 982 q 533 972 510 976 l 519 824 q 458 833 492 829 q 404 836 425 836 q 304 812 332 836 q 276 718 276 788 q 297 658 276 675 q 358 642 318 642 l 504 642 l 449 0 m 678 -28 q 658 -140 672 -97 q 617 -206 643 -183 q 551 -237 592 -229 q 453 -244 511 -244 q 392 -242 421 -244 q 336 -237 364 -240 l 351 -87 q 397 -92 369 -90 q 438 -94 424 -94 q 490 -78 475 -94 q 507 -25 504 -61 l 594 972 l 765 972 l 678 -28 z "},"•":{"ha":424,"x_min":81,"x_max":389,"o":"m 81 299 l 104 569 l 389 569 l 365 299 l 81 299 z "},"‚":{"ha":326,"x_min":8,"x_max":269,"o":"m 143 -218 l 8 -218 l 69 0 l 82 153 l 269 153 l 257 0 l 143 -218 z "},"„":{"ha":549,"x_min":8,"x_max":506,"o":"m 379 -218 l 244 -218 l 306 0 l 318 153 l 506 153 l 493 0 l 379 -218 m 143 -218 l 8 -218 l 69 0 l 82 153 l 269 153 l 257 0 l 143 -218 z "},"”":{"ha":549,"x_min":79,"x_max":578,"o":"m 450 601 l 315 601 l 376 819 l 390 972 l 578 972 l 564 819 l 450 601 m 214 601 l 79 601 l 140 819 l 154 972 l 342 972 l 328 819 l 214 601 z "},"»":{"ha":646,"x_min":65,"x_max":599,"o":"m 301 128 l 413 415 l 354 703 l 503 703 l 599 415 l 453 128 l 301 128 m 65 128 l 176 415 l 118 703 l 267 703 l 363 415 l 217 128 l 65 128 z "},"…":{"ha":1042,"x_min":56,"x_max":974,"o":"m 56 0 l 71 181 l 279 181 l 264 0 l 56 0 m 403 0 l 418 181 l 626 181 l 611 0 l 403 0 m 750 0 l 765 181 l 974 181 l 958 0 l 750 0 z "},"‰":{"ha":1763,"x_min":133,"x_max":1685,"o":"m 1531 283 q 1535 332 1533 311 q 1536 369 1536 353 q 1523 438 1536 421 q 1479 456 1510 456 q 1445 449 1458 456 q 1423 424 1432 443 q 1408 372 1414 406 q 1397 283 1401 338 q 1393 197 1393 232 q 1405 129 1393 147 q 1449 111 1417 111 q 1483 119 1469 111 q 1506 146 1497 126 q 1521 199 1515 165 q 1531 283 1526 232 m 421 689 q 425 738 424 717 q 426 775 426 758 q 413 844 426 826 q 369 861 400 861 q 335 855 349 861 q 313 830 322 849 q 298 777 304 811 q 288 689 292 743 q 283 640 285 661 q 282 601 282 619 q 294 534 282 551 q 339 517 307 517 q 374 524 360 517 q 397 551 388 532 q 411 604 406 571 q 421 689 417 638 m 572 694 q 554 574 567 629 q 515 479 542 519 q 444 416 489 439 q 328 393 399 393 q 235 410 272 393 q 175 458 197 428 q 143 532 153 489 q 133 626 133 575 q 143 771 133 706 q 180 884 153 836 q 256 958 207 932 q 381 985 304 985 q 474 969 436 985 q 533 925 511 954 q 565 855 556 896 q 575 763 575 814 q 575 730 575 747 q 572 694 575 713 m 535 0 l 371 0 l 796 972 l 960 972 l 535 0 m 1040 283 q 1044 332 1043 311 q 1046 369 1046 353 q 1033 438 1046 421 q 989 456 1019 456 q 955 449 968 456 q 933 424 942 443 q 917 372 924 406 q 907 283 911 338 q 903 197 903 232 q 915 129 903 147 q 958 111 926 111 q 993 119 979 111 q 1016 146 1007 126 q 1031 199 1025 165 q 1040 283 1036 232 m 1192 289 q 1174 169 1186 224 q 1135 74 1161 114 q 1063 10 1108 33 q 947 -12 1018 -12 q 854 5 892 -12 q 794 53 817 22 q 763 126 772 83 q 753 221 753 169 q 763 365 753 300 q 799 478 772 431 q 875 553 826 526 q 1000 579 924 579 q 1093 564 1056 579 q 1153 519 1131 549 q 1185 449 1175 490 q 1194 357 1194 408 q 1194 324 1194 342 q 1192 289 1194 307 m 1682 289 q 1664 169 1676 224 q 1625 74 1651 114 q 1553 10 1599 33 q 1438 -12 1508 -12 q 1344 5 1382 -12 q 1285 53 1307 22 q 1253 126 1263 83 q 1243 221 1243 169 q 1253 365 1243 300 q 1290 478 1263 431 q 1365 553 1317 526 q 1490 579 1414 579 q 1583 564 1546 579 q 1643 519 1621 549 q 1675 449 1665 490 q 1685 357 1685 408 q 1685 324 1685 342 q 1682 289 1685 307 z "},"¿":{"ha":528,"x_min":21,"x_max":463,"o":"m 460 694 l 444 514 l 236 514 l 251 694 l 460 694 m 24 -39 q 33 23 26 -4 q 49 72 39 50 q 76 115 60 94 q 114 161 92 136 l 226 283 l 235 378 l 422 378 l 410 226 l 286 90 q 249 49 264 67 q 226 15 235 32 q 213 -20 217 -1 q 210 -64 210 -39 q 231 -116 210 -100 q 314 -132 251 -132 q 384 -126 342 -132 q 463 -111 426 -119 l 449 -271 q 412 -277 435 -274 q 364 -283 389 -281 q 314 -288 339 -286 q 269 -290 289 -290 q 167 -282 213 -290 q 88 -251 121 -274 q 38 -188 56 -228 q 21 -85 21 -149 q 22 -62 21 -74 q 24 -39 22 -51 z "},"`":{"ha":435,"x_min":107,"x_max":456,"o":"m 308 806 l 107 993 l 328 993 l 456 806 l 308 806 z "},"´":{"ha":435,"x_min":90,"x_max":472,"o":"m 90 806 l 244 993 l 472 993 l 244 806 l 90 806 z "},"ˆ":{"ha":601,"x_min":83,"x_max":629,"o":"m 429 806 l 369 908 l 290 806 l 83 806 l 269 993 l 475 993 l 629 806 l 429 806 z "},"˜":{"ha":528,"x_min":92,"x_max":565,"o":"m 104 956 q 175 991 138 982 q 240 1000 213 1000 q 291 992 265 1000 q 342 973 317 983 q 392 954 368 963 q 436 946 415 946 q 504 959 472 946 q 565 996 536 972 l 553 850 q 488 815 524 824 q 415 806 451 806 q 364 814 389 806 q 315 833 339 822 q 267 851 290 843 q 221 860 243 860 q 150 844 185 860 q 92 810 115 829 l 104 956 z "},"¯":{"ha":479,"x_min":92,"x_max":515,"o":"m 92 821 l 106 972 l 515 972 l 501 821 l 92 821 z "},"˘":{"ha":519,"x_min":107,"x_max":557,"o":"m 269 994 q 284 942 269 961 q 326 924 299 924 q 372 943 354 924 q 394 994 390 963 l 557 994 q 539 931 553 965 q 497 865 525 896 q 424 814 469 835 q 311 793 378 793 q 212 814 251 793 q 149 865 172 835 q 116 931 125 896 q 107 994 107 965 l 269 994 z "},"˙":{"ha":268,"x_min":92,"x_max":304,"o":"m 92 813 l 106 972 l 304 972 l 290 813 l 92 813 z "},"¨":{"ha":528,"x_min":88,"x_max":561,"o":"m 365 778 l 381 938 l 561 938 l 546 778 l 365 778 m 88 778 l 103 938 l 283 938 l 268 778 l 88 778 z "},"˚":{"ha":392,"x_min":97,"x_max":422,"o":"m 299 897 q 300 910 300 904 q 300 922 300 917 q 292 955 300 944 q 265 965 285 965 q 228 942 238 965 q 219 872 219 919 q 227 840 219 850 q 254 829 235 829 q 287 846 278 829 q 299 897 296 863 m 421 896 q 374 771 414 815 q 244 726 335 726 q 135 764 172 726 q 97 871 97 801 q 139 1014 97 963 q 275 1065 181 1065 q 384 1028 346 1065 q 422 921 422 990 q 422 908 422 914 q 421 896 422 903 z "},"¸":{"ha":467,"x_min":50,"x_max":347,"o":"m 60 -176 q 99 -181 79 -179 q 135 -183 119 -183 q 179 -177 165 -183 q 193 -151 193 -171 q 188 -137 193 -143 q 171 -126 183 -131 q 137 -121 158 -122 q 81 -119 115 -119 l 128 69 l 261 69 l 238 -26 q 322 -65 296 -33 q 347 -143 347 -97 q 302 -261 347 -214 q 154 -308 257 -308 q 100 -305 131 -308 q 50 -297 69 -301 l 60 -176 z "},"˝":{"ha":719,"x_min":93,"x_max":761,"o":"m 240 831 l 93 831 l 254 1035 l 490 1035 l 240 831 m 511 831 l 364 831 l 525 1035 l 761 1035 l 511 831 z "},"˛":{"ha":469,"x_min":65,"x_max":351,"o":"m 342 -261 q 317 -266 332 -264 q 285 -270 301 -268 q 252 -274 268 -272 q 224 -275 236 -275 q 100 -239 135 -275 q 65 -132 65 -203 q 95 -1 65 -51 q 158 83 125 50 l 297 83 q 242 -10 263 38 q 221 -83 221 -58 q 233 -123 221 -107 q 269 -139 244 -139 q 308 -135 285 -139 q 351 -129 332 -132 l 342 -261 z "},"ˇ":{"ha":601,"x_min":100,"x_max":646,"o":"m 300 994 l 361 892 l 439 994 l 646 994 l 460 807 l 254 807 l 100 994 l 300 994 z "},"—":{"ha":840,"x_min":92,"x_max":793,"o":"m 92 340 l 106 500 l 793 500 l 779 340 l 92 340 z "},"Æ":{"ha":1085,"x_min":7,"x_max":1058,"o":"m 524 0 l 517 226 l 289 226 l 206 0 l 7 0 l 383 972 l 1058 972 l 1044 822 l 674 822 l 689 576 l 1013 576 l 999 428 l 697 428 l 715 150 l 1014 150 l 1001 0 l 524 0 m 347 390 l 511 390 l 499 806 l 347 390 z "},"ª":{"ha":599,"x_min":72,"x_max":557,"o":"m 118 699 q 144 833 125 779 q 196 921 164 888 q 274 968 228 954 q 383 982 321 982 q 472 974 424 982 q 554 957 519 967 l 522 590 q 529 569 522 576 q 557 563 536 563 l 549 451 l 492 451 q 465 453 479 451 q 438 462 451 456 q 414 480 424 468 q 400 510 404 492 q 341 460 375 478 q 260 442 307 442 q 149 483 185 442 q 114 626 114 525 q 118 699 114 660 m 72 0 l 86 160 l 504 160 l 490 0 l 72 0 m 307 568 q 344 580 329 568 q 367 610 358 592 q 381 651 376 629 q 386 692 385 672 l 400 854 q 380 855 389 854 q 363 856 371 856 q 323 848 342 856 q 290 816 304 840 q 269 747 276 792 q 261 626 261 701 q 271 578 261 589 q 307 568 281 568 z "},"Ł":{"ha":597,"x_min":49,"x_max":583,"o":"m 97 0 l 136 444 l 49 403 l 63 567 l 150 610 l 182 972 l 372 972 l 349 707 l 476 771 l 463 604 l 335 542 l 301 161 l 583 161 l 569 0 l 97 0 z "},"Ø":{"ha":761,"x_min":97,"x_max":763,"o":"m 756 497 q 726 274 744 369 q 667 114 707 178 q 561 18 628 50 q 386 -14 494 -14 q 334 -11 358 -14 q 289 -4 310 -8 l 239 -126 l 101 -126 l 175 54 q 115 168 132 99 q 97 336 97 238 q 106 497 97 410 q 135 711 117 619 q 194 864 154 803 q 301 956 235 925 q 474 986 368 986 q 515 984 496 986 q 554 979 535 982 l 603 1099 l 742 1099 l 671 928 q 741 813 719 885 q 763 636 763 740 q 760 569 763 604 q 756 497 758 535 m 561 490 q 569 651 569 589 l 569 679 l 350 144 q 399 136 371 136 q 463 152 436 136 q 508 208 489 168 q 540 317 526 249 q 561 490 553 385 m 297 490 q 289 331 289 397 l 493 832 q 460 836 479 836 q 396 822 422 836 q 351 770 369 808 q 319 665 332 732 q 297 490 307 597 z "},"Œ":{"ha":1104,"x_min":90,"x_max":1106,"o":"m 497 0 q 442 -10 471 -7 q 379 -14 413 -14 q 242 8 297 -14 q 153 75 186 31 q 105 185 119 119 q 90 340 90 251 q 92 369 90 347 q 94 418 93 392 q 97 467 96 444 q 99 497 99 490 q 129 711 110 619 q 189 864 149 803 q 296 956 229 925 q 467 986 363 986 q 528 983 500 986 q 582 972 557 979 l 1106 972 l 1092 822 l 732 822 q 754 636 754 747 q 754 606 754 621 q 753 576 754 592 l 1036 576 l 1022 428 l 740 428 q 716 272 731 340 q 676 150 701 203 l 1033 150 l 1021 0 l 497 0 m 554 490 q 563 651 563 589 q 556 742 563 707 q 536 799 550 778 q 502 828 522 819 q 453 836 482 836 q 389 822 415 836 q 344 770 363 808 q 313 665 325 732 q 290 490 300 597 q 282 331 282 397 q 308 177 282 218 q 392 136 335 136 q 456 152 429 136 q 501 208 482 168 q 533 317 519 249 q 554 490 546 385 z "},"º":{"ha":603,"x_min":67,"x_max":578,"o":"m 421 711 q 425 776 425 749 q 410 847 425 829 q 363 865 396 865 q 326 857 342 865 q 298 826 310 849 q 280 763 286 803 q 274 661 274 724 q 288 586 274 610 q 336 563 301 563 q 396 598 378 563 q 421 711 414 633 m 575 725 q 551 589 568 643 q 503 502 533 535 q 430 456 474 469 q 325 443 386 443 q 240 453 278 443 q 176 490 203 464 q 136 558 150 515 q 122 664 122 600 q 135 806 122 746 q 178 906 149 867 q 255 965 207 946 q 374 985 303 985 q 528 933 478 985 q 578 772 578 881 q 577 749 578 761 q 575 725 576 738 m 67 0 l 81 160 l 517 160 l 503 0 l 67 0 z "},"æ":{"ha":1028,"x_min":71,"x_max":993,"o":"m 993 506 q 931 327 993 390 q 717 264 868 264 q 672 265 694 264 q 622 269 649 267 q 643 172 622 197 q 728 146 664 146 q 825 153 775 146 q 907 167 875 160 l 893 11 q 853 2 876 7 q 805 -6 829 -3 q 757 -10 781 -8 q 714 -12 733 -12 q 581 5 638 -12 q 490 72 525 22 q 401 11 458 35 q 267 -12 343 -12 q 192 -3 228 -12 q 130 27 157 6 q 87 85 103 49 q 71 175 71 121 q 149 378 71 318 q 379 439 228 439 q 410 438 392 439 q 449 433 429 436 l 453 471 q 454 486 454 476 q 434 536 454 518 q 367 554 414 554 q 256 545 307 554 q 150 521 204 536 l 164 679 q 210 690 183 685 q 267 699 238 694 q 326 705 296 703 q 381 707 356 707 q 506 694 458 707 q 582 658 554 682 q 758 707 651 707 q 878 686 832 707 q 949 635 924 665 q 984 569 975 604 q 993 506 993 533 m 333 143 q 381 153 363 143 q 411 179 400 164 q 427 212 422 194 q 433 243 432 229 l 438 297 q 368 304 403 304 q 291 278 321 304 q 261 204 261 253 q 278 160 261 176 q 333 143 294 143 m 742 554 q 676 523 701 554 q 636 413 651 492 q 696 408 668 408 q 779 425 747 408 q 811 483 811 442 q 799 533 811 513 q 742 554 788 554 z "},"ı":{"ha":365,"x_min":76,"x_max":321,"o":"m 76 0 l 136 694 l 321 694 l 261 0 l 76 0 z "},"ł":{"ha":417,"x_min":56,"x_max":428,"o":"m 368 4 q 317 -3 353 1 q 240 -7 281 -7 q 133 29 161 -7 q 104 140 104 65 q 105 172 104 156 q 107 206 106 188 l 128 443 l 56 403 l 69 567 l 142 608 l 175 972 l 360 972 l 338 719 l 428 771 l 414 604 l 322 553 l 296 244 q 292 193 292 203 q 300 162 292 171 q 331 153 308 153 q 360 155 346 153 q 381 158 375 157 l 368 4 z "},"ø":{"ha":736,"x_min":86,"x_max":690,"o":"m 690 424 q 690 393 690 408 q 688 361 689 378 q 655 180 678 251 q 592 66 632 108 q 493 7 551 24 q 356 -10 435 -10 q 319 -8 336 -10 q 285 -4 301 -7 l 229 -124 l 97 -124 l 172 36 q 108 126 129 68 q 86 281 86 185 q 104 470 86 390 q 163 602 122 550 q 266 679 203 654 q 418 704 329 704 q 485 699 457 704 l 542 818 l 672 818 l 596 657 q 690 424 690 590 m 497 340 q 501 417 501 385 q 501 435 501 426 q 500 451 500 443 l 353 140 l 368 140 q 422 150 400 140 q 460 183 444 160 q 483 244 475 206 q 497 340 492 282 m 274 249 l 417 554 l 404 554 q 351 544 374 554 q 315 508 329 533 q 292 442 300 483 q 278 340 283 401 q 274 261 274 294 l 274 249 z "},"œ":{"ha":1075,"x_min":82,"x_max":1040,"o":"m 1040 506 q 1026 403 1040 447 q 978 328 1011 358 q 893 281 946 297 q 765 265 840 265 q 719 267 743 265 q 669 271 696 268 q 674 211 669 235 q 690 173 678 188 q 722 152 701 158 q 775 146 743 146 q 872 153 822 146 q 954 167 922 160 l 940 11 q 900 2 924 7 q 852 -6 876 -3 q 804 -10 828 -8 q 761 -12 781 -12 q 643 2 694 -12 q 557 51 592 17 q 471 6 521 21 q 351 -10 421 -10 q 238 3 288 -10 q 153 50 188 17 q 100 140 118 83 q 82 281 82 196 q 100 470 82 390 q 158 602 118 550 q 262 679 199 654 q 414 704 325 704 q 526 686 479 704 q 606 636 574 668 q 806 707 679 707 q 925 686 879 707 q 997 635 971 665 q 1031 569 1022 604 q 1040 506 1040 533 m 493 340 q 497 417 497 385 q 474 524 497 494 q 400 554 451 554 q 347 544 369 554 q 310 508 325 533 q 288 442 296 483 q 274 340 279 401 q 269 261 269 294 q 290 166 269 192 q 364 140 311 140 q 418 150 396 140 q 456 183 440 160 q 479 244 471 206 q 493 340 488 282 m 789 554 q 724 524 749 554 q 683 415 699 493 q 747 411 717 411 q 828 427 797 411 q 858 483 858 443 q 847 533 858 513 q 789 554 835 554 z "},"ß":{"ha":746,"x_min":76,"x_max":690,"o":"m 690 260 q 671 128 690 181 q 616 45 651 76 q 531 1 581 14 q 422 -12 482 -12 q 394 -12 410 -12 q 360 -9 378 -11 q 325 -5 342 -7 q 296 0 308 -3 l 308 158 q 356 147 328 151 q 399 143 385 143 q 477 168 456 143 q 499 242 499 193 q 479 297 499 278 q 419 332 460 317 q 344 393 367 353 q 322 486 322 433 q 333 560 322 525 q 366 624 344 596 q 419 669 388 651 q 489 689 450 688 q 503 728 499 706 q 507 764 507 751 q 489 812 507 794 q 422 829 471 829 q 351 801 372 829 q 324 708 329 772 l 263 0 l 76 0 l 138 699 q 158 808 143 757 q 208 899 174 860 q 297 962 242 939 q 436 985 351 985 q 531 972 488 985 q 608 934 575 958 q 658 874 640 910 q 676 794 676 839 q 664 685 676 739 q 636 572 651 631 q 532 557 561 572 q 503 504 503 542 q 546 457 503 472 q 649 391 607 436 q 690 260 690 346 z "},"¹":{"ha":569,"x_min":117,"x_max":497,"o":"m 117 285 l 129 424 l 244 424 l 281 828 l 149 774 l 161 919 l 282 972 l 453 972 l 404 424 l 497 424 l 485 285 l 117 285 z "},"¬":{"ha":799,"x_min":99,"x_max":744,"o":"m 547 147 l 563 340 l 99 340 l 113 500 l 744 500 l 714 147 l 547 147 z "},"µ":{"ha":726,"x_min":47,"x_max":675,"o":"m 314 694 l 275 263 q 274 246 274 253 q 274 233 274 239 l 274 221 q 292 162 274 176 q 340 147 311 147 q 391 165 369 147 q 426 209 413 183 q 449 265 440 235 q 458 321 457 296 l 490 694 l 675 694 l 615 0 l 465 0 l 458 69 q 380 10 425 33 q 275 -12 335 -12 q 263 -12 268 -12 q 251 -11 257 -12 l 232 -236 l 47 -236 l 90 251 q 92 268 90 263 l 129 694 l 314 694 z "},"™":{"ha":1125,"x_min":101,"x_max":1119,"o":"m 914 269 l 965 850 l 850 501 l 714 501 l 668 850 l 617 269 l 472 269 l 524 846 l 399 846 l 347 269 l 197 269 l 249 846 l 101 846 l 113 972 l 774 972 l 806 701 l 879 972 l 1119 972 l 1057 269 l 914 269 z "},"Ð":{"ha":758,"x_min":67,"x_max":724,"o":"m 718 501 q 676 246 704 346 q 603 88 649 146 q 494 8 558 31 q 344 -14 431 -14 q 263 -12 308 -14 q 176 -7 217 -10 q 83 0 131 -3 l 122 451 l 67 451 l 81 611 l 136 611 l 168 972 q 263 979 217 975 q 344 984 303 982 q 415 986 386 986 q 542 972 485 986 q 639 919 599 958 q 701 810 679 881 q 724 628 724 740 q 722 568 724 600 q 718 501 721 536 m 524 492 q 532 650 532 590 q 525 740 532 707 q 506 791 518 774 q 474 813 493 808 q 431 818 456 818 q 395 817 411 818 q 368 815 379 817 q 344 813 354 814 l 326 611 l 463 611 l 449 451 l 313 451 l 288 160 q 307 157 294 158 q 333 155 318 156 q 371 154 349 154 q 428 169 403 154 q 472 223 453 185 q 503 326 490 261 q 524 492 515 392 z "},"½":{"ha":1215,"x_min":82,"x_max":1226,"o":"m 82 285 l 94 424 l 210 424 l 246 828 l 114 774 l 126 919 l 247 972 l 418 972 l 369 424 l 463 424 l 450 285 l 82 285 m 807 0 l 821 144 l 976 317 q 1020 365 1003 343 q 1048 408 1038 388 q 1063 451 1058 429 q 1067 500 1067 474 q 1050 543 1067 524 q 989 563 1033 563 q 927 558 956 563 q 874 547 899 553 l 885 682 q 904 685 889 682 q 940 690 919 688 q 984 695 961 693 q 1028 697 1007 697 q 1173 646 1119 697 q 1226 504 1226 594 q 1206 383 1226 439 q 1147 285 1186 326 l 1010 136 l 1203 136 l 1190 0 l 807 0 m 467 -139 l 303 -139 l 842 1125 l 1007 1125 l 467 -139 z "},"±":{"ha":764,"x_min":90,"x_max":711,"o":"m 90 0 l 104 160 l 674 160 l 660 0 l 90 0 m 489 340 l 478 218 l 308 218 l 319 340 l 111 340 l 125 500 l 333 500 l 353 719 l 522 719 l 503 500 l 711 500 l 697 340 l 489 340 z "},"Þ":{"ha":736,"x_min":83,"x_max":706,"o":"m 703 500 q 672 346 694 408 q 608 244 649 283 q 507 189 567 206 q 367 172 447 172 l 288 172 l 274 0 l 83 0 l 168 972 l 358 972 l 344 822 q 377 823 361 822 q 410 824 393 824 q 638 755 571 824 q 706 557 706 686 q 705 529 706 543 q 703 500 704 515 m 508 490 q 510 515 510 503 q 511 539 511 528 q 491 627 511 597 q 421 657 471 657 q 353 653 376 657 q 329 649 339 650 l 303 336 l 390 336 q 470 378 439 336 q 508 490 501 419 z "},"¼":{"ha":1215,"x_min":82,"x_max":1168,"o":"m 82 285 l 94 424 l 210 424 l 246 828 l 114 774 l 126 919 l 247 972 l 418 972 l 369 424 l 463 424 l 450 285 l 82 285 m 1094 163 l 1079 0 l 921 0 l 936 163 l 736 163 l 749 307 l 881 688 l 1033 688 l 897 293 l 950 293 l 985 450 l 1119 450 l 1106 293 l 1168 285 l 1157 163 l 1094 163 m 460 -139 l 296 -139 l 835 1125 l 1000 1125 l 460 -139 z "},"÷":{"ha":764,"x_min":113,"x_max":696,"o":"m 113 340 l 126 500 l 696 500 l 682 340 l 113 340 m 268 63 l 285 243 l 493 243 l 476 63 l 268 63 m 315 597 l 331 778 l 539 778 l 524 597 l 315 597 z "},"¦":{"ha":431,"x_min":97,"x_max":389,"o":"m 97 -153 l 140 347 l 321 347 l 278 -153 l 97 -153 m 165 625 l 208 1125 l 389 1125 l 346 625 l 165 625 z "},"°":{"ha":532,"x_min":78,"x_max":557,"o":"m 397 753 q 399 774 399 760 q 382 833 399 811 q 325 854 365 854 q 256 822 276 854 q 235 732 235 789 q 251 669 235 693 q 307 644 267 644 q 372 675 351 644 q 397 753 393 706 m 556 751 q 483 574 544 635 q 296 514 422 514 q 135 567 192 514 q 78 719 78 619 q 141 917 78 851 q 336 982 204 982 q 499 933 440 982 q 557 783 557 883 q 557 768 557 776 q 556 751 557 760 z "},"þ":{"ha":721,"x_min":56,"x_max":674,"o":"m 56 -236 l 161 972 l 346 972 l 317 642 q 389 690 349 672 q 482 707 429 707 q 627 645 581 707 q 674 461 674 583 q 673 421 674 446 q 669 378 672 396 q 636 193 660 268 q 570 72 613 118 q 465 7 528 26 q 313 -12 401 -12 q 284 -12 297 -12 q 260 -11 271 -12 l 240 -236 l 56 -236 m 419 549 q 371 535 393 549 q 333 499 349 521 q 308 449 318 476 q 296 397 299 422 l 274 149 q 307 147 290 147 q 339 146 324 146 q 397 159 369 146 q 444 205 424 172 q 476 294 464 238 q 488 439 488 351 q 470 526 488 504 q 419 549 453 549 z "},"¾":{"ha":1215,"x_min":96,"x_max":1158,"o":"m 479 529 q 419 335 479 394 q 246 275 360 275 q 203 276 226 275 q 159 280 181 278 q 120 285 138 282 q 96 289 103 288 l 107 419 q 157 410 126 415 q 222 404 188 404 q 292 430 267 404 q 318 508 318 456 q 236 589 318 589 l 176 589 l 188 715 l 238 715 q 287 722 268 715 q 315 741 306 729 q 328 768 325 753 q 332 801 332 783 q 263 853 332 853 q 203 847 233 853 q 149 836 172 842 l 160 967 q 179 970 164 968 q 215 975 194 972 q 258 980 235 978 q 301 982 281 982 q 447 944 401 982 q 492 822 492 906 q 487 774 492 800 q 470 724 482 747 q 440 681 458 700 q 392 656 421 663 q 427 638 411 651 q 454 606 443 624 q 472 569 465 589 q 479 529 479 549 m 1085 163 l 1069 0 l 911 0 l 926 163 l 726 163 l 739 307 l 871 688 l 1024 688 l 888 293 l 940 293 l 975 450 l 1110 450 l 1096 293 l 1158 293 l 1147 163 l 1085 163 m 444 -139 l 281 -139 l 819 1125 l 985 1125 l 444 -139 z "},"²":{"ha":569,"x_min":89,"x_max":508,"o":"m 89 285 l 103 429 l 258 601 q 302 650 285 628 q 330 693 319 672 q 344 736 340 714 q 349 785 349 758 q 332 828 349 808 q 271 847 315 847 q 209 842 238 847 q 156 832 181 838 l 167 967 q 186 969 171 967 q 222 975 201 972 q 266 980 243 978 q 310 982 289 982 q 455 931 401 982 q 508 789 508 879 q 488 667 508 724 q 429 569 468 611 l 292 421 l 485 421 l 472 285 l 89 285 z "},"®":{"ha":1125,"x_min":125,"x_max":1056,"o":"m 1056 486 q 1033 278 1056 371 q 958 122 1011 186 q 817 22 906 57 q 597 -12 729 -12 q 375 22 465 -12 q 229 119 285 56 q 149 276 174 183 q 125 486 125 368 q 149 694 125 601 q 230 851 174 786 q 376 950 286 915 q 597 985 467 985 q 817 950 729 985 q 958 850 904 915 q 1033 693 1011 785 q 1056 486 1056 601 m 893 486 q 884 646 893 578 q 844 759 875 714 q 755 826 814 804 q 597 849 696 849 q 438 827 499 849 q 343 760 376 806 q 299 647 310 715 q 288 486 288 579 q 299 326 288 394 q 343 213 310 257 q 438 146 376 168 q 597 124 499 124 q 755 146 696 124 q 844 213 814 168 q 884 326 875 258 q 893 486 893 394 m 758 596 q 739 497 758 533 q 686 443 719 461 l 790 221 l 661 221 l 576 425 l 560 425 l 560 221 l 444 221 l 444 756 q 494 758 469 757 q 542 760 517 760 q 592 761 568 761 q 672 749 640 761 q 724 716 704 738 q 751 664 743 694 q 758 596 758 633 m 640 593 q 631 649 640 635 q 583 664 621 664 q 568 663 574 664 q 560 661 563 661 l 560 525 l 574 525 q 626 537 611 525 q 640 593 640 549 z "},"−":{"ha":764,"x_min":113,"x_max":696,"o":"m 113 340 l 126 500 l 696 500 l 682 340 l 113 340 z "},"ð":{"ha":706,"x_min":79,"x_max":664,"o":"m 81 292 q 104 440 88 374 q 152 554 121 507 q 232 626 183 601 q 353 651 281 651 q 418 644 388 651 q 475 622 449 636 q 460 715 472 679 q 428 775 447 751 l 392 717 l 243 717 l 313 826 q 255 828 285 829 q 193 829 225 828 l 207 985 q 311 983 261 985 q 406 974 361 981 l 449 1042 l 597 1042 l 529 933 q 586 888 561 915 q 628 822 611 861 q 655 731 646 783 q 664 611 664 679 q 663 591 664 607 q 662 557 663 575 q 660 523 661 539 q 658 501 658 507 q 622 252 646 351 q 558 94 599 153 q 458 12 518 36 q 313 -12 399 -12 q 239 -1 279 -12 q 163 38 199 10 q 103 117 128 67 q 79 247 79 168 q 79 269 79 258 q 81 292 79 281 m 372 501 q 292 433 321 501 q 264 249 264 365 q 284 162 264 183 q 343 140 304 140 q 386 151 367 140 q 421 198 406 163 q 449 301 436 233 q 471 481 461 368 q 426 495 451 489 q 372 501 400 501 z "},"×":{"ha":792,"x_min":143,"x_max":704,"o":"m 306 417 l 143 579 l 261 697 l 424 535 l 586 697 l 704 579 l 542 417 l 704 254 l 586 136 l 424 299 l 261 136 l 143 254 l 306 417 z "},"³":{"ha":569,"x_min":107,"x_max":503,"o":"m 490 529 q 431 335 490 394 q 257 275 371 275 q 215 276 238 275 q 170 280 192 278 q 131 285 149 282 q 107 289 114 288 l 118 419 q 168 410 138 415 q 233 404 199 404 q 303 430 278 404 q 329 508 329 456 q 247 589 329 589 l 188 589 l 199 715 l 249 715 q 298 722 279 715 q 326 741 317 729 q 340 768 336 753 q 343 801 343 783 q 274 853 343 853 q 214 847 244 853 q 160 836 183 842 l 171 967 q 190 970 175 968 q 226 975 206 972 q 269 980 246 978 q 313 982 292 982 q 458 944 413 982 q 503 822 503 906 q 498 774 503 800 q 481 724 493 747 q 451 681 469 700 q 403 656 432 663 q 438 638 422 651 q 465 606 454 624 q 483 569 476 589 q 490 529 490 549 z "},"©":{"ha":1125,"x_min":125,"x_max":1056,"o":"m 707 225 q 688 222 701 224 q 658 218 674 219 q 626 215 642 217 q 601 214 611 214 q 526 226 557 214 q 474 269 494 238 q 445 355 454 300 q 436 494 436 410 q 446 631 436 579 q 477 710 456 682 q 531 749 499 739 q 610 758 564 758 q 632 757 618 758 q 660 754 646 756 q 688 751 675 753 q 707 747 701 749 l 707 646 q 668 652 688 650 q 633 654 649 654 q 597 651 611 654 q 574 632 582 647 q 563 583 565 617 q 560 489 560 550 q 563 392 560 426 q 575 342 567 358 q 598 322 583 325 q 635 318 613 318 q 672 321 653 318 q 707 326 692 324 l 707 225 m 1056 486 q 1033 278 1056 371 q 958 122 1011 186 q 817 22 906 57 q 597 -12 729 -12 q 375 22 465 -12 q 229 119 285 56 q 149 276 174 183 q 125 486 125 368 q 149 694 125 601 q 230 851 174 786 q 376 950 286 915 q 597 985 467 985 q 817 950 729 985 q 958 850 904 915 q 1033 693 1011 785 q 1056 486 1056 601 m 893 486 q 884 646 893 578 q 844 759 875 714 q 755 826 814 804 q 597 849 696 849 q 438 827 499 849 q 343 760 376 806 q 299 647 310 715 q 288 486 288 579 q 299 326 288 394 q 343 213 310 257 q 438 146 376 168 q 597 124 499 124 q 755 146 696 124 q 844 213 814 168 q 884 326 875 258 q 893 486 893 394 z "},"Á":{"ha":757,"x_min":7,"x_max":722,"o":"m 301 1008 l 460 1168 l 683 1168 l 465 1008 l 301 1008 m 443 850 l 315 390 l 489 390 l 443 850 m 531 0 l 506 226 l 269 226 l 206 0 l 7 0 l 311 972 l 592 972 l 722 0 l 531 0 z "},"Â":{"ha":757,"x_min":7,"x_max":722,"o":"m 519 1014 l 472 1099 l 408 1014 l 203 1014 l 369 1174 l 581 1174 l 721 1014 l 519 1014 m 443 850 l 315 390 l 489 390 l 443 850 m 531 0 l 506 226 l 269 226 l 206 0 l 7 0 l 311 972 l 592 972 l 722 0 l 531 0 z "},"Ä":{"ha":757,"x_min":7,"x_max":722,"o":"m 443 850 l 315 390 l 489 390 l 443 850 m 531 0 l 506 226 l 269 226 l 206 0 l 7 0 l 311 972 l 592 972 l 722 0 l 531 0 m 499 1014 l 514 1174 l 694 1174 l 679 1014 l 499 1014 m 221 1014 l 236 1174 l 417 1174 l 401 1014 l 221 1014 z "},"À":{"ha":757,"x_min":7,"x_max":722,"o":"m 424 1008 l 219 1168 l 443 1168 l 574 1008 l 424 1008 m 443 850 l 315 390 l 489 390 l 443 850 m 531 0 l 506 226 l 269 226 l 206 0 l 7 0 l 311 972 l 592 972 l 722 0 l 531 0 z "},"Å":{"ha":757,"x_min":7,"x_max":722,"o":"m 622 1060 q 613 1003 619 1029 q 593 958 606 978 l 722 0 l 531 0 l 506 226 l 269 226 l 206 0 l 7 0 l 310 968 q 299 1035 299 999 q 340 1178 299 1126 q 476 1229 382 1229 q 585 1192 547 1229 q 624 1085 624 1154 q 624 1072 624 1078 q 622 1060 624 1067 m 443 850 l 315 390 l 489 390 l 443 850 m 500 1061 q 501 1074 501 1068 q 501 1086 501 1081 q 494 1119 501 1108 q 467 1129 486 1129 q 430 1106 439 1129 q 421 1036 421 1083 q 428 1003 421 1014 q 456 993 436 993 q 488 1010 479 993 q 500 1061 497 1026 z "},"Ã":{"ha":757,"x_min":7,"x_max":722,"o":"m 443 850 l 315 390 l 489 390 l 443 850 m 531 0 l 506 226 l 269 226 l 206 0 l 7 0 l 311 972 l 592 972 l 722 0 l 531 0 m 244 1150 q 315 1185 278 1176 q 381 1194 353 1194 q 431 1186 406 1194 q 483 1167 457 1178 q 532 1149 508 1157 q 576 1140 556 1140 q 644 1153 613 1140 q 706 1190 676 1167 l 693 1044 q 628 1009 664 1018 q 556 1000 592 1000 q 504 1008 529 1000 q 455 1027 479 1017 q 407 1046 431 1038 q 361 1054 383 1054 q 290 1039 325 1054 q 232 1004 256 1024 l 244 1150 z "},"Ç":{"ha":601,"x_min":92,"x_max":615,"o":"m 221 -176 q 260 -181 240 -179 q 296 -183 281 -183 q 340 -177 326 -183 q 354 -151 354 -171 q 349 -137 354 -143 q 332 -126 344 -131 q 298 -121 319 -122 q 242 -119 276 -119 l 271 -1 q 194 31 228 8 q 138 94 161 53 q 103 197 115 135 q 92 346 92 258 q 93 419 92 381 q 99 501 94 457 q 140 755 113 660 q 212 900 168 850 q 319 966 256 950 q 467 982 382 982 q 503 980 481 982 q 548 975 525 978 q 590 969 571 972 q 615 963 608 965 l 601 793 q 519 809 567 803 q 435 815 472 815 q 383 805 406 815 q 342 761 360 794 q 313 664 325 728 q 290 492 300 600 q 288 457 289 482 q 285 404 286 432 q 283 353 283 376 q 282 324 282 331 q 288 238 282 271 q 305 188 293 206 q 335 163 317 169 q 376 157 353 157 q 422 159 397 157 q 469 165 446 161 q 513 172 493 168 q 547 178 533 175 l 532 10 q 476 -1 514 4 q 403 -8 439 -6 l 399 -26 q 483 -65 457 -33 q 508 -143 508 -97 q 463 -261 508 -214 q 315 -308 418 -308 q 261 -305 292 -308 q 211 -297 231 -301 l 221 -176 z "},"É":{"ha":664,"x_min":83,"x_max":665,"o":"m 281 1008 l 439 1168 l 663 1168 l 444 1008 l 281 1008 m 83 0 l 168 972 l 665 972 l 651 822 l 344 822 l 324 576 l 596 576 l 582 428 l 310 428 l 286 150 l 593 150 l 581 0 l 83 0 z "},"Ê":{"ha":664,"x_min":83,"x_max":679,"o":"m 478 1014 l 431 1099 l 367 1014 l 161 1014 l 328 1174 l 539 1174 l 679 1014 l 478 1014 m 83 0 l 168 972 l 665 972 l 651 822 l 344 822 l 324 576 l 596 576 l 582 428 l 310 428 l 286 150 l 593 150 l 581 0 l 83 0 z "},"Ë":{"ha":664,"x_min":83,"x_max":665,"o":"m 83 0 l 168 972 l 665 972 l 651 822 l 344 822 l 324 576 l 596 576 l 582 428 l 310 428 l 286 150 l 593 150 l 581 0 l 83 0 m 463 1000 l 478 1160 l 658 1160 l 643 1000 l 463 1000 m 185 1000 l 200 1160 l 381 1160 l 365 1000 l 185 1000 z "},"È":{"ha":664,"x_min":83,"x_max":665,"o":"m 426 1008 l 222 1168 l 446 1168 l 576 1008 l 426 1008 m 83 0 l 168 972 l 665 972 l 651 822 l 344 822 l 324 576 l 596 576 l 582 428 l 310 428 l 286 150 l 593 150 l 581 0 l 83 0 z "},"Í":{"ha":482,"x_min":35,"x_max":532,"o":"m 150 1008 l 308 1168 l 532 1168 l 314 1008 l 150 1008 m 35 0 l 47 147 l 144 147 l 203 825 l 106 825 l 119 972 l 504 972 l 490 825 l 393 825 l 335 147 l 432 147 l 419 0 l 35 0 z "},"Î":{"ha":482,"x_min":35,"x_max":574,"o":"m 372 1014 l 325 1099 l 261 1014 l 56 1014 l 222 1174 l 433 1174 l 574 1014 l 372 1014 m 35 0 l 47 147 l 144 147 l 203 825 l 106 825 l 119 972 l 504 972 l 490 825 l 393 825 l 335 147 l 432 147 l 419 0 l 35 0 z "},"Ï":{"ha":482,"x_min":35,"x_max":553,"o":"m 35 0 l 47 147 l 144 147 l 203 825 l 106 825 l 119 972 l 504 972 l 490 825 l 393 825 l 335 147 l 432 147 l 419 0 l 35 0 m 357 1000 l 372 1160 l 553 1160 l 538 1000 l 357 1000 m 79 1000 l 94 1160 l 275 1160 l 260 1000 l 79 1000 z "},"Ì":{"ha":482,"x_min":35,"x_max":504,"o":"m 325 1008 l 121 1168 l 344 1168 l 475 1008 l 325 1008 m 35 0 l 47 147 l 144 147 l 203 825 l 106 825 l 119 972 l 504 972 l 490 825 l 393 825 l 335 147 l 432 147 l 419 0 l 35 0 z "},"Ñ":{"ha":822,"x_min":83,"x_max":796,"o":"m 435 0 l 319 781 l 251 0 l 83 0 l 168 972 l 444 972 l 561 176 l 631 972 l 796 972 l 711 0 l 435 0 m 269 1150 q 340 1185 303 1176 q 406 1194 378 1194 q 456 1186 431 1194 q 508 1167 482 1178 q 557 1149 533 1157 q 601 1140 581 1140 q 669 1153 638 1140 q 731 1190 701 1167 l 718 1044 q 653 1009 689 1018 q 581 1000 617 1000 q 529 1008 554 1000 q 480 1027 504 1017 q 432 1046 456 1038 q 386 1054 408 1054 q 315 1039 350 1054 q 257 1004 281 1024 l 269 1150 z "},"Ó":{"ha":789,"x_min":90,"x_max":756,"o":"m 346 1008 l 504 1168 l 728 1168 l 510 1008 l 346 1008 m 554 490 q 563 651 563 589 q 556 742 563 707 q 536 799 550 778 q 502 828 522 819 q 453 836 482 836 q 389 822 415 836 q 344 770 363 808 q 313 665 325 732 q 290 490 300 597 q 282 331 282 397 q 308 177 282 218 q 392 136 335 136 q 456 152 429 136 q 501 208 482 168 q 533 317 519 249 q 554 490 546 385 m 749 497 q 719 274 738 369 q 660 114 700 178 q 554 18 621 50 q 379 -14 488 -14 q 242 8 297 -14 q 153 74 186 31 q 105 183 119 118 q 90 336 90 249 q 99 497 90 410 q 128 711 110 619 q 188 864 147 803 q 294 956 228 925 q 467 986 361 986 q 603 965 549 986 q 692 899 658 943 q 741 790 726 856 q 756 636 756 724 q 753 569 756 604 q 749 497 751 535 z "},"Ô":{"ha":789,"x_min":90,"x_max":756,"o":"m 526 1014 l 479 1099 l 415 1014 l 210 1014 l 376 1174 l 588 1174 l 728 1014 l 526 1014 m 554 490 q 563 651 563 589 q 556 742 563 707 q 536 799 550 778 q 502 828 522 819 q 453 836 482 836 q 389 822 415 836 q 344 770 363 808 q 313 665 325 732 q 290 490 300 597 q 282 331 282 397 q 308 177 282 218 q 392 136 335 136 q 456 152 429 136 q 501 208 482 168 q 533 317 519 249 q 554 490 546 385 m 749 497 q 719 274 738 369 q 660 114 700 178 q 554 18 621 50 q 379 -14 488 -14 q 242 8 297 -14 q 153 74 186 31 q 105 183 119 118 q 90 336 90 249 q 99 497 90 410 q 128 711 110 619 q 188 864 147 803 q 294 956 228 925 q 467 986 361 986 q 603 965 549 986 q 692 899 658 943 q 741 790 726 856 q 756 636 756 724 q 753 569 756 604 q 749 497 751 535 z "},"Ö":{"ha":789,"x_min":90,"x_max":756,"o":"m 510 1014 l 525 1174 l 706 1174 l 690 1014 l 510 1014 m 232 1014 l 247 1174 l 428 1174 l 413 1014 l 232 1014 m 554 490 q 563 651 563 589 q 556 742 563 707 q 536 799 550 778 q 502 828 522 819 q 453 836 482 836 q 389 822 415 836 q 344 770 363 808 q 313 665 325 732 q 290 490 300 597 q 282 331 282 397 q 308 177 282 218 q 392 136 335 136 q 456 152 429 136 q 501 208 482 168 q 533 317 519 249 q 554 490 546 385 m 749 497 q 719 274 738 369 q 660 114 700 178 q 554 18 621 50 q 379 -14 488 -14 q 242 8 297 -14 q 153 74 186 31 q 105 183 119 118 q 90 336 90 249 q 99 497 90 410 q 128 711 110 619 q 188 864 147 803 q 294 956 228 925 q 467 986 361 986 q 603 965 549 986 q 692 899 658 943 q 741 790 726 856 q 756 636 756 724 q 753 569 756 604 q 749 497 751 535 z "},"Ò":{"ha":789,"x_min":90,"x_max":756,"o":"m 432 1008 l 228 1168 l 451 1168 l 582 1008 l 432 1008 m 554 490 q 563 651 563 589 q 556 742 563 707 q 536 799 550 778 q 502 828 522 819 q 453 836 482 836 q 389 822 415 836 q 344 770 363 808 q 313 665 325 732 q 290 490 300 597 q 282 331 282 397 q 308 177 282 218 q 392 136 335 136 q 456 152 429 136 q 501 208 482 168 q 533 317 519 249 q 554 490 546 385 m 749 497 q 719 274 738 369 q 660 114 700 178 q 554 18 621 50 q 379 -14 488 -14 q 242 8 297 -14 q 153 74 186 31 q 105 183 119 118 q 90 336 90 249 q 99 497 90 410 q 128 711 110 619 q 188 864 147 803 q 294 956 228 925 q 467 986 361 986 q 603 965 549 986 q 692 899 658 943 q 741 790 726 856 q 756 636 756 724 q 753 569 756 604 q 749 497 751 535 z "},"Õ":{"ha":789,"x_min":90,"x_max":756,"o":"m 554 490 q 563 651 563 589 q 556 742 563 707 q 536 799 550 778 q 502 828 522 819 q 453 836 482 836 q 389 822 415 836 q 344 770 363 808 q 313 665 325 732 q 290 490 300 597 q 282 331 282 397 q 308 177 282 218 q 392 136 335 136 q 456 152 429 136 q 501 208 482 168 q 533 317 519 249 q 554 490 546 385 m 749 497 q 719 274 738 369 q 660 114 700 178 q 554 18 621 50 q 379 -14 488 -14 q 242 8 297 -14 q 153 74 186 31 q 105 183 119 118 q 90 336 90 249 q 99 497 90 410 q 128 711 110 619 q 188 864 147 803 q 294 956 228 925 q 467 986 361 986 q 603 965 549 986 q 692 899 658 943 q 741 790 726 856 q 756 636 756 724 q 753 569 756 604 q 749 497 751 535 m 247 1150 q 318 1185 281 1176 q 383 1194 356 1194 q 434 1186 408 1194 q 485 1167 460 1178 q 535 1149 511 1157 q 579 1140 558 1140 q 647 1153 615 1140 q 708 1190 679 1167 l 696 1044 q 631 1009 667 1018 q 558 1000 594 1000 q 507 1008 532 1000 q 458 1027 482 1017 q 410 1046 433 1038 q 364 1054 386 1054 q 293 1039 328 1054 q 235 1004 258 1024 l 247 1150 z "},"Š":{"ha":589,"x_min":29,"x_max":657,"o":"m 343 1174 l 392 1089 l 454 1174 l 657 1174 l 490 1014 l 279 1014 l 139 1174 l 343 1174 m 575 350 q 574 326 575 339 q 572 301 574 314 q 535 140 563 201 q 464 46 508 79 q 360 1 419 13 q 225 -10 300 -10 q 176 -8 203 -10 q 122 -4 149 -7 q 70 3 94 -1 q 29 11 46 7 l 44 176 q 83 168 60 172 q 131 161 106 164 q 181 156 156 158 q 225 154 206 154 q 337 190 294 154 q 379 313 379 225 q 351 392 379 369 q 272 426 324 414 q 124 510 168 451 q 81 656 81 568 q 165 903 81 825 q 433 982 249 982 q 477 981 453 982 q 525 976 501 979 q 571 970 549 974 q 607 963 593 967 l 593 797 q 509 813 557 808 q 408 818 461 818 q 308 785 342 818 q 275 676 275 751 q 297 619 275 636 q 375 589 318 601 q 456 561 419 579 q 519 515 493 543 q 560 446 546 486 q 575 350 575 406 z "},"Ú":{"ha":771,"x_min":99,"x_max":751,"o":"m 353 1008 l 511 1168 l 735 1168 l 517 1008 l 353 1008 m 692 299 q 661 153 683 213 q 599 58 639 94 q 503 6 560 22 q 371 -10 447 -10 q 260 3 311 -10 q 174 47 210 17 q 119 128 139 78 q 99 250 99 178 q 99 274 99 261 q 101 299 100 286 l 161 972 l 351 972 l 292 293 q 290 268 290 278 q 289 251 289 258 q 385 154 289 154 q 467 184 439 154 q 500 272 494 214 l 561 972 l 751 972 l 692 299 z "},"Û":{"ha":771,"x_min":99,"x_max":751,"o":"m 515 1014 l 468 1099 l 404 1014 l 199 1014 l 365 1174 l 576 1174 l 717 1014 l 515 1014 m 692 299 q 661 153 683 213 q 599 58 639 94 q 503 6 560 22 q 371 -10 447 -10 q 260 3 311 -10 q 174 47 210 17 q 119 128 139 78 q 99 250 99 178 q 99 274 99 261 q 101 299 100 286 l 161 972 l 351 972 l 292 293 q 290 268 290 278 q 289 251 289 258 q 385 154 289 154 q 467 184 439 154 q 500 272 494 214 l 561 972 l 751 972 l 692 299 z "},"Ü":{"ha":771,"x_min":99,"x_max":751,"o":"m 513 1014 l 528 1174 l 708 1174 l 693 1014 l 513 1014 m 235 1014 l 250 1174 l 431 1174 l 415 1014 l 235 1014 m 692 299 q 661 153 683 213 q 599 58 639 94 q 503 6 560 22 q 371 -10 447 -10 q 260 3 311 -10 q 174 47 210 17 q 119 128 139 78 q 99 250 99 178 q 99 274 99 261 q 101 299 100 286 l 161 972 l 351 972 l 292 293 q 290 268 290 278 q 289 251 289 258 q 385 154 289 154 q 467 184 439 154 q 500 272 494 214 l 561 972 l 751 972 l 692 299 z "},"Ù":{"ha":771,"x_min":99,"x_max":751,"o":"m 418 1008 l 214 1168 l 438 1168 l 568 1008 l 418 1008 m 692 299 q 661 153 683 213 q 599 58 639 94 q 503 6 560 22 q 371 -10 447 -10 q 260 3 311 -10 q 174 47 210 17 q 119 128 139 78 q 99 250 99 178 q 99 274 99 261 q 101 299 100 286 l 161 972 l 351 972 l 292 293 q 290 268 290 278 q 289 251 289 258 q 385 154 289 154 q 467 184 439 154 q 500 272 494 214 l 561 972 l 751 972 l 692 299 z "},"Ý":{"ha":738,"x_min":85,"x_max":794,"o":"m 346 1008 l 504 1168 l 728 1168 l 503 1008 l 346 1008 m 486 428 l 450 0 l 256 0 l 292 428 l 85 972 l 286 972 l 407 597 l 594 972 l 794 972 l 486 428 z "},"Ÿ":{"ha":738,"x_min":85,"x_max":794,"o":"m 486 428 l 450 0 l 256 0 l 292 428 l 85 972 l 286 972 l 407 597 l 594 972 l 794 972 l 486 428 m 489 1000 l 504 1160 l 685 1160 l 669 1000 l 489 1000 m 211 1000 l 226 1160 l 407 1160 l 392 1000 l 211 1000 z "},"Ž":{"ha":647,"x_min":35,"x_max":689,"o":"m 375 1174 l 424 1089 l 486 1174 l 689 1174 l 522 1014 l 311 1014 l 171 1174 l 375 1174 m 260 165 l 585 165 l 571 0 l 35 0 l 50 185 l 444 807 l 136 807 l 151 972 l 669 972 l 653 788 l 260 165 z "},"á":{"ha":724,"x_min":79,"x_max":699,"o":"m 83 329 q 117 508 93 436 q 183 625 140 581 q 288 688 225 669 q 436 707 350 707 q 555 697 492 707 q 664 674 618 686 l 622 176 q 632 149 622 158 q 672 139 642 139 l 661 0 l 581 0 q 547 3 565 0 q 510 15 528 6 q 478 39 492 24 q 460 79 465 54 q 380 12 425 36 q 272 -12 335 -12 q 126 42 172 -12 q 79 232 79 97 q 83 329 79 278 m 335 146 q 383 161 363 146 q 417 201 403 176 q 439 253 431 225 q 449 307 447 282 l 468 546 q 438 548 453 547 q 410 549 422 549 q 356 537 382 549 q 310 492 331 525 q 278 399 290 458 q 267 246 267 340 q 283 165 267 185 q 335 146 299 146 m 317 806 l 471 993 l 699 993 l 471 806 l 317 806 z "},"â":{"ha":724,"x_min":79,"x_max":710,"o":"m 83 329 q 117 508 93 436 q 183 625 140 581 q 288 688 225 669 q 436 707 350 707 q 555 697 492 707 q 664 674 618 686 l 622 176 q 632 149 622 158 q 672 139 642 139 l 661 0 l 581 0 q 547 3 565 0 q 510 15 528 6 q 478 39 492 24 q 460 79 465 54 q 380 12 425 36 q 272 -12 335 -12 q 126 42 172 -12 q 79 232 79 97 q 83 329 79 278 m 335 146 q 383 161 363 146 q 417 201 403 176 q 439 253 431 225 q 449 307 447 282 l 468 546 q 438 548 453 547 q 410 549 422 549 q 356 537 382 549 q 310 492 331 525 q 278 399 290 458 q 267 246 267 340 q 283 165 267 185 q 335 146 299 146 m 510 806 l 450 908 l 371 806 l 164 806 l 350 993 l 556 993 l 710 806 l 510 806 z "},"ä":{"ha":724,"x_min":79,"x_max":672,"o":"m 83 329 q 117 508 93 436 q 183 625 140 581 q 288 688 225 669 q 436 707 350 707 q 555 697 492 707 q 664 674 618 686 l 622 176 q 632 149 622 158 q 672 139 642 139 l 661 0 l 581 0 q 547 3 565 0 q 510 15 528 6 q 478 39 492 24 q 460 79 465 54 q 380 12 425 36 q 272 -12 335 -12 q 126 42 172 -12 q 79 232 79 97 q 83 329 79 278 m 335 146 q 383 161 363 146 q 417 201 403 176 q 439 253 431 225 q 449 307 447 282 l 468 546 q 438 548 453 547 q 410 549 422 549 q 356 537 382 549 q 310 492 331 525 q 278 399 290 458 q 267 246 267 340 q 283 165 267 185 q 335 146 299 146 m 476 778 l 492 938 l 672 938 l 657 778 l 476 778 m 199 778 l 214 938 l 394 938 l 379 778 l 199 778 z "},"à":{"ha":724,"x_min":79,"x_max":672,"o":"m 83 329 q 117 508 93 436 q 183 625 140 581 q 288 688 225 669 q 436 707 350 707 q 555 697 492 707 q 664 674 618 686 l 622 176 q 632 149 622 158 q 672 139 642 139 l 661 0 l 581 0 q 547 3 565 0 q 510 15 528 6 q 478 39 492 24 q 460 79 465 54 q 380 12 425 36 q 272 -12 335 -12 q 126 42 172 -12 q 79 232 79 97 q 83 329 79 278 m 335 146 q 383 161 363 146 q 417 201 403 176 q 439 253 431 225 q 449 307 447 282 l 468 546 q 438 548 453 547 q 410 549 422 549 q 356 537 382 549 q 310 492 331 525 q 278 399 290 458 q 267 246 267 340 q 283 165 267 185 q 335 146 299 146 m 438 806 l 236 993 l 457 993 l 585 806 l 438 806 z "},"å":{"ha":724,"x_min":79,"x_max":672,"o":"m 483 897 q 485 910 485 904 q 485 922 485 917 q 477 955 485 944 q 450 965 469 965 q 413 942 422 965 q 404 872 404 919 q 412 840 404 850 q 439 829 419 829 q 472 846 463 829 q 483 897 481 863 m 606 896 q 559 771 599 815 q 429 726 519 726 q 319 764 357 726 q 282 871 282 801 q 324 1014 282 963 q 460 1065 365 1065 q 569 1028 531 1065 q 607 921 607 990 q 607 908 607 914 q 606 896 607 903 m 83 329 q 117 508 93 436 q 183 625 140 581 q 288 688 225 669 q 436 707 350 707 q 555 697 492 707 q 664 674 618 686 l 622 176 q 632 149 622 158 q 672 139 642 139 l 661 0 l 581 0 q 547 3 565 0 q 510 15 528 6 q 478 39 492 24 q 460 79 465 54 q 380 12 425 36 q 272 -12 335 -12 q 126 42 172 -12 q 79 232 79 97 q 83 329 79 278 m 335 146 q 383 161 363 146 q 417 201 403 176 q 439 253 431 225 q 449 307 447 282 l 468 546 q 438 548 453 547 q 410 549 422 549 q 356 537 382 549 q 310 492 331 525 q 278 399 290 458 q 267 246 267 340 q 283 165 267 185 q 335 146 299 146 z "},"ã":{"ha":724,"x_min":79,"x_max":678,"o":"m 83 329 q 117 508 93 436 q 183 625 140 581 q 288 688 225 669 q 436 707 350 707 q 555 697 492 707 q 664 674 618 686 l 622 176 q 632 149 622 158 q 672 139 642 139 l 661 0 l 581 0 q 547 3 565 0 q 510 15 528 6 q 478 39 492 24 q 460 79 465 54 q 380 12 425 36 q 272 -12 335 -12 q 126 42 172 -12 q 79 232 79 97 q 83 329 79 278 m 335 146 q 383 161 363 146 q 417 201 403 176 q 439 253 431 225 q 449 307 447 282 l 468 546 q 438 548 453 547 q 410 549 422 549 q 356 537 382 549 q 310 492 331 525 q 278 399 290 458 q 267 246 267 340 q 283 165 267 185 q 335 146 299 146 m 217 956 q 288 991 250 982 q 353 1000 325 1000 q 403 992 378 1000 q 455 973 429 983 q 504 954 481 963 q 549 946 528 946 q 617 959 585 946 q 678 996 649 972 l 665 850 q 600 815 636 824 q 528 806 564 806 q 476 814 501 806 q 427 833 451 822 q 379 851 403 843 q 333 860 356 860 q 263 844 297 860 q 204 810 228 829 l 217 956 z "},"ç":{"ha":567,"x_min":83,"x_max":557,"o":"m 194 -176 q 234 -181 214 -179 q 269 -183 254 -183 q 314 -177 300 -183 q 328 -151 328 -171 q 323 -137 328 -143 q 306 -126 318 -131 q 272 -121 293 -122 q 215 -119 250 -119 l 243 -4 q 176 20 206 3 q 126 69 147 38 q 94 150 106 101 q 83 268 83 199 q 103 471 83 388 q 161 607 122 554 q 260 683 200 660 q 400 707 319 707 q 481 701 435 707 q 557 688 526 694 l 543 525 q 508 533 524 529 q 476 539 493 536 q 440 543 460 542 q 394 544 421 544 q 351 536 371 544 q 317 505 332 528 q 292 441 303 482 q 275 333 282 400 q 273 305 274 318 q 272 279 272 292 q 294 178 272 206 q 357 150 315 150 q 445 157 410 150 q 511 169 481 164 l 497 8 q 439 -3 471 1 q 375 -11 407 -8 l 372 -26 q 456 -65 431 -33 q 482 -143 482 -97 q 437 -261 482 -214 q 289 -308 392 -308 q 235 -305 265 -308 q 185 -297 204 -301 l 194 -176 z "},"é":{"ha":672,"x_min":82,"x_max":664,"o":"m 638 506 q 623 404 638 449 q 576 329 608 360 q 492 283 544 299 q 364 267 439 267 q 317 267 342 267 q 267 271 293 268 l 267 260 q 290 170 267 194 q 372 146 313 146 q 469 153 419 146 q 551 167 519 160 l 538 11 q 497 2 521 7 q 449 -6 474 -3 q 401 -10 425 -8 q 358 -12 378 -12 q 245 -2 296 -12 q 158 38 194 8 q 102 123 122 68 q 82 267 82 178 q 86 347 82 304 q 118 512 94 443 q 181 624 142 581 q 275 687 219 667 q 403 707 331 707 q 522 686 476 707 q 594 635 568 665 q 628 569 619 604 q 638 506 638 533 m 386 554 q 321 524 346 554 q 281 415 296 493 q 346 411 317 411 q 426 427 396 411 q 456 483 456 443 q 444 533 456 513 q 386 554 432 554 m 282 806 l 436 993 l 664 993 l 436 806 l 282 806 z "},"ê":{"ha":672,"x_min":82,"x_max":674,"o":"m 638 506 q 623 404 638 449 q 576 329 608 360 q 492 283 544 299 q 364 267 439 267 q 317 267 342 267 q 267 271 293 268 l 267 260 q 290 170 267 194 q 372 146 313 146 q 469 153 419 146 q 551 167 519 160 l 538 11 q 497 2 521 7 q 449 -6 474 -3 q 401 -10 425 -8 q 358 -12 378 -12 q 245 -2 296 -12 q 158 38 194 8 q 102 123 122 68 q 82 267 82 178 q 86 347 82 304 q 118 512 94 443 q 181 624 142 581 q 275 687 219 667 q 403 707 331 707 q 522 686 476 707 q 594 635 568 665 q 628 569 619 604 q 638 506 638 533 m 386 554 q 321 524 346 554 q 281 415 296 493 q 346 411 317 411 q 426 427 396 411 q 456 483 456 443 q 444 533 456 513 q 386 554 432 554 m 474 806 l 414 908 l 335 806 l 128 806 l 314 993 l 519 993 l 674 806 l 474 806 z "},"ë":{"ha":672,"x_min":82,"x_max":651,"o":"m 638 506 q 623 404 638 449 q 576 329 608 360 q 492 283 544 299 q 364 267 439 267 q 317 267 342 267 q 267 271 293 268 l 267 260 q 290 170 267 194 q 372 146 313 146 q 469 153 419 146 q 551 167 519 160 l 538 11 q 497 2 521 7 q 449 -6 474 -3 q 401 -10 425 -8 q 358 -12 378 -12 q 245 -2 296 -12 q 158 38 194 8 q 102 123 122 68 q 82 267 82 178 q 86 347 82 304 q 118 512 94 443 q 181 624 142 581 q 275 687 219 667 q 403 707 331 707 q 522 686 476 707 q 594 635 568 665 q 628 569 619 604 q 638 506 638 533 m 386 554 q 321 524 346 554 q 281 415 296 493 q 346 411 317 411 q 426 427 396 411 q 456 483 456 443 q 444 533 456 513 q 386 554 432 554 m 456 778 l 471 938 l 651 938 l 636 778 l 456 778 m 178 778 l 193 938 l 374 938 l 358 778 l 178 778 z "},"è":{"ha":672,"x_min":82,"x_max":638,"o":"m 638 506 q 623 404 638 449 q 576 329 608 360 q 492 283 544 299 q 364 267 439 267 q 317 267 342 267 q 267 271 293 268 l 267 260 q 290 170 267 194 q 372 146 313 146 q 469 153 419 146 q 551 167 519 160 l 538 11 q 497 2 521 7 q 449 -6 474 -3 q 401 -10 425 -8 q 358 -12 378 -12 q 245 -2 296 -12 q 158 38 194 8 q 102 123 122 68 q 82 267 82 178 q 86 347 82 304 q 118 512 94 443 q 181 624 142 581 q 275 687 219 667 q 403 707 331 707 q 522 686 476 707 q 594 635 568 665 q 628 569 619 604 q 638 506 638 533 m 386 554 q 321 524 346 554 q 281 415 296 493 q 346 411 317 411 q 426 427 396 411 q 456 483 456 443 q 444 533 456 513 q 386 554 432 554 m 408 806 l 207 993 l 428 993 l 556 806 l 408 806 z "},"í":{"ha":365,"x_min":76,"x_max":488,"o":"m 76 0 l 136 694 l 321 694 l 261 0 l 76 0 m 106 806 l 260 993 l 488 993 l 260 806 l 106 806 z "},"î":{"ha":365,"x_min":-35,"x_max":511,"o":"m 76 0 l 136 694 l 321 694 l 261 0 l 76 0 m 311 806 l 251 908 l 172 806 l -35 806 l 151 993 l 357 993 l 511 806 l 311 806 z "},"ï":{"ha":365,"x_min":7,"x_max":481,"o":"m 76 0 l 136 694 l 321 694 l 261 0 l 76 0 m 285 778 l 300 938 l 481 938 l 465 778 l 285 778 m 7 778 l 22 938 l 203 938 l 188 778 l 7 778 z "},"ì":{"ha":365,"x_min":18,"x_max":367,"o":"m 76 0 l 136 694 l 321 694 l 261 0 l 76 0 m 219 806 l 18 993 l 239 993 l 367 806 l 219 806 z "},"ñ":{"ha":728,"x_min":76,"x_max":693,"o":"m 76 0 l 136 694 l 286 694 l 293 621 q 374 683 328 660 q 482 707 421 707 q 629 656 588 707 q 671 497 671 606 q 667 417 671 469 l 631 0 l 446 0 l 482 413 q 484 439 483 424 q 485 467 485 454 q 467 531 485 515 q 417 547 450 547 q 365 529 388 547 q 328 485 343 511 q 304 429 313 460 q 293 374 296 399 l 261 0 l 76 0 m 232 956 q 303 991 265 982 q 368 1000 340 1000 q 419 992 393 1000 q 470 973 444 983 q 519 954 496 963 q 564 946 543 946 q 632 959 600 946 q 693 996 664 972 l 681 850 q 615 815 651 824 q 543 806 579 806 q 492 814 517 806 q 442 833 467 822 q 394 851 418 843 q 349 860 371 860 q 278 844 313 860 q 219 810 243 829 l 232 956 z "},"ó":{"ha":736,"x_min":86,"x_max":690,"o":"m 690 424 q 690 393 690 408 q 688 361 689 378 q 655 180 678 251 q 592 66 632 108 q 493 7 551 24 q 356 -10 435 -10 q 240 3 290 -10 q 156 50 190 17 q 103 140 121 83 q 86 281 86 196 q 104 470 86 390 q 163 602 122 550 q 266 679 203 654 q 418 704 329 704 q 622 637 554 704 q 690 424 690 569 m 497 340 q 501 417 501 385 q 478 524 501 494 q 404 554 456 554 q 351 544 374 554 q 315 508 329 533 q 292 442 300 483 q 278 340 283 401 q 274 261 274 294 q 294 166 274 192 q 368 140 315 140 q 422 150 400 140 q 460 183 444 160 q 483 244 475 206 q 497 340 492 282 m 292 806 l 446 993 l 674 993 l 446 806 l 292 806 z "},"ô":{"ha":736,"x_min":86,"x_max":697,"o":"m 690 424 q 690 393 690 408 q 688 361 689 378 q 655 180 678 251 q 592 66 632 108 q 493 7 551 24 q 356 -10 435 -10 q 240 3 290 -10 q 156 50 190 17 q 103 140 121 83 q 86 281 86 196 q 104 470 86 390 q 163 602 122 550 q 266 679 203 654 q 418 704 329 704 q 622 637 554 704 q 690 424 690 569 m 497 340 q 501 417 501 385 q 478 524 501 494 q 404 554 456 554 q 351 544 374 554 q 315 508 329 533 q 292 442 300 483 q 278 340 283 401 q 274 261 274 294 q 294 166 274 192 q 368 140 315 140 q 422 150 400 140 q 460 183 444 160 q 483 244 475 206 q 497 340 492 282 m 497 806 l 438 908 l 358 806 l 151 806 l 338 993 l 543 993 l 697 806 l 497 806 z "},"ö":{"ha":736,"x_min":86,"x_max":690,"o":"m 690 424 q 690 393 690 408 q 688 361 689 378 q 655 180 678 251 q 592 66 632 108 q 493 7 551 24 q 356 -10 435 -10 q 240 3 290 -10 q 156 50 190 17 q 103 140 121 83 q 86 281 86 196 q 104 470 86 390 q 163 602 122 550 q 266 679 203 654 q 418 704 329 704 q 622 637 554 704 q 690 424 690 569 m 497 340 q 501 417 501 385 q 478 524 501 494 q 404 554 456 554 q 351 544 374 554 q 315 508 329 533 q 292 442 300 483 q 278 340 283 401 q 274 261 274 294 q 294 166 274 192 q 368 140 315 140 q 422 150 400 140 q 460 183 444 160 q 483 244 475 206 q 497 340 492 282 m 474 778 l 489 938 l 669 938 l 654 778 l 474 778 m 196 778 l 211 938 l 392 938 l 376 778 l 196 778 z "},"ò":{"ha":736,"x_min":86,"x_max":690,"o":"m 690 424 q 690 393 690 408 q 688 361 689 378 q 655 180 678 251 q 592 66 632 108 q 493 7 551 24 q 356 -10 435 -10 q 240 3 290 -10 q 156 50 190 17 q 103 140 121 83 q 86 281 86 196 q 104 470 86 390 q 163 602 122 550 q 266 679 203 654 q 418 704 329 704 q 622 637 554 704 q 690 424 690 569 m 497 340 q 501 381 500 363 q 501 417 501 400 q 478 524 501 494 q 404 554 456 554 q 351 544 374 554 q 315 508 329 533 q 292 442 300 483 q 278 340 283 401 q 274 261 274 294 q 294 166 274 192 q 368 140 315 140 q 422 150 400 140 q 460 183 444 160 q 483 244 475 206 q 497 340 492 282 m 407 806 l 206 993 l 426 993 l 554 806 l 407 806 z "},"õ":{"ha":736,"x_min":86,"x_max":690,"o":"m 690 424 q 690 393 690 408 q 688 361 689 378 q 655 180 678 251 q 592 66 632 108 q 493 7 551 24 q 356 -10 435 -10 q 240 3 290 -10 q 156 50 190 17 q 103 140 121 83 q 86 281 86 196 q 104 470 86 390 q 163 602 122 550 q 266 679 203 654 q 418 704 329 704 q 622 637 554 704 q 690 424 690 569 m 497 340 q 501 417 501 385 q 478 524 501 494 q 404 554 456 554 q 351 544 374 554 q 315 508 329 533 q 292 442 300 483 q 278 340 283 401 q 274 261 274 294 q 294 166 274 192 q 368 140 315 140 q 422 150 400 140 q 460 183 444 160 q 483 244 475 206 q 497 340 492 282 m 208 956 q 279 991 242 982 q 344 1000 317 1000 q 395 992 369 1000 q 447 973 421 983 q 496 954 472 963 q 540 946 519 946 q 608 959 576 946 q 669 996 640 972 l 657 850 q 592 815 628 824 q 519 806 556 806 q 468 814 493 806 q 419 833 443 822 q 371 851 394 843 q 325 860 347 860 q 254 844 289 860 q 196 810 219 829 l 208 956 z "},"š":{"ha":590,"x_min":51,"x_max":658,"o":"m 540 243 q 518 117 540 167 q 456 39 496 68 q 361 -1 417 10 q 240 -12 306 -12 q 186 -10 214 -12 q 133 -5 158 -8 q 87 2 108 -1 q 51 10 65 6 l 65 167 q 137 151 93 160 q 229 143 181 143 q 316 158 283 143 q 349 217 349 172 q 331 256 349 243 q 267 278 314 268 q 128 347 168 297 q 89 463 89 396 q 165 652 89 597 q 392 707 240 707 q 439 705 414 707 q 487 699 464 703 q 528 692 510 696 q 557 686 547 689 l 543 528 q 474 544 511 538 q 379 551 436 551 q 302 536 325 551 q 279 486 279 521 q 301 453 279 463 q 364 435 322 444 q 503 363 465 413 q 540 243 540 314 m 313 994 l 374 892 l 451 994 l 658 994 l 472 807 l 267 807 l 113 994 l 313 994 z "},"ú":{"ha":719,"x_min":89,"x_max":675,"o":"m 314 694 l 279 288 q 277 251 278 268 q 275 225 276 233 q 292 162 275 176 q 340 147 308 147 q 391 165 369 147 q 427 209 413 183 q 449 265 442 235 q 458 321 457 296 l 490 694 l 675 694 l 615 0 l 465 0 l 458 69 q 380 10 425 33 q 275 -12 335 -12 q 130 40 171 -12 q 89 200 89 93 q 90 232 89 215 q 92 268 90 249 l 129 694 l 314 694 m 264 806 l 418 993 l 646 993 l 418 806 l 264 806 z "},"û":{"ha":719,"x_min":89,"x_max":685,"o":"m 314 694 l 279 288 q 277 251 278 268 q 275 225 276 233 q 292 162 275 176 q 340 147 308 147 q 391 165 369 147 q 427 209 413 183 q 449 265 442 235 q 458 321 457 296 l 490 694 l 675 694 l 615 0 l 465 0 l 458 69 q 380 10 425 33 q 275 -12 335 -12 q 130 40 171 -12 q 89 200 89 93 q 90 232 89 215 q 92 268 90 249 l 129 694 l 314 694 m 485 806 l 425 908 l 346 806 l 139 806 l 325 993 l 531 993 l 685 806 l 485 806 z "},"ü":{"ha":719,"x_min":89,"x_max":675,"o":"m 314 694 l 279 288 q 277 251 278 268 q 275 225 276 233 q 292 162 275 176 q 340 147 308 147 q 391 165 369 147 q 427 209 413 183 q 449 265 442 235 q 458 321 457 296 l 490 694 l 675 694 l 615 0 l 465 0 l 458 69 q 380 10 425 33 q 275 -12 335 -12 q 130 40 171 -12 q 89 200 89 93 q 90 232 89 215 q 92 268 90 249 l 129 694 l 314 694 m 458 778 l 474 938 l 654 938 l 639 778 l 458 778 m 181 778 l 196 938 l 376 938 l 361 778 l 181 778 z "},"ù":{"ha":719,"x_min":89,"x_max":675,"o":"m 314 694 l 279 288 q 277 251 278 268 q 275 225 276 233 q 292 162 275 176 q 340 147 308 147 q 391 165 369 147 q 427 209 413 183 q 449 265 442 235 q 458 321 457 296 l 490 694 l 675 694 l 615 0 l 465 0 l 458 69 q 380 10 425 33 q 275 -12 335 -12 q 130 40 171 -12 q 89 200 89 93 q 90 232 89 215 q 92 268 90 249 l 129 694 l 314 694 m 371 806 l 169 993 l 390 993 l 518 806 l 371 806 z "},"ý":{"ha":685,"x_min":74,"x_max":703,"o":"m 460 -58 q 246 -246 399 -246 q 216 -245 235 -246 q 178 -244 197 -244 q 144 -242 160 -243 q 121 -239 128 -240 l 135 -82 q 203 -86 168 -86 q 276 -25 258 -86 l 283 0 l 236 0 l 74 694 l 268 694 l 356 154 l 521 694 l 703 694 l 460 -58 m 296 806 l 450 993 l 678 993 l 450 806 l 296 806 z "},"ÿ":{"ha":685,"x_min":74,"x_max":703,"o":"m 460 -58 q 246 -246 399 -246 q 216 -245 235 -246 q 178 -244 197 -244 q 144 -242 160 -243 q 121 -239 128 -240 l 135 -82 q 203 -86 168 -86 q 276 -25 258 -86 l 283 0 l 236 0 l 74 694 l 268 694 l 356 154 l 521 694 l 703 694 l 460 -58 m 440 778 l 456 938 l 636 938 l 621 778 l 440 778 m 163 778 l 178 938 l 358 938 l 343 778 l 163 778 z "},"ž":{"ha":581,"x_min":40,"x_max":660,"o":"m 264 149 l 536 149 l 524 0 l 40 0 l 53 154 l 375 546 l 115 546 l 128 694 l 597 694 l 583 528 l 264 149 m 314 994 l 375 892 l 453 994 l 660 994 l 474 807 l 264 807 l 114 994 l 314 994 z "},"\"":{"ha":583,"x_min":113,"x_max":599,"o":"m 253 601 l 135 601 l 113 819 l 126 972 l 328 972 l 314 819 l 253 601 m 524 601 l 406 601 l 383 819 l 397 972 l 599 972 l 585 819 l 524 601 z "},"!":{"ha":375,"x_min":69,"x_max":351,"o":"m 69 0 l 85 181 l 293 181 l 278 0 l 69 0 m 106 317 l 164 972 l 351 972 l 293 317 l 106 317 z "}," ":{"ha":389,"x_min":0,"x_max":0,"o":""},"­":{"ha":688,"x_min":119,"x_max":613,"o":"m 119 340 l 133 500 l 613 500 l 599 340 l 119 340 z "},"ˉ":{"ha":479,"x_min":92,"x_max":515,"o":"m 92 821 l 106 972 l 515 972 l 501 821 l 92 821 z "},"μ":{"ha":726,"x_min":47,"x_max":675,"o":"m 314 694 l 275 263 q 274 246 274 253 q 274 233 274 239 l 274 221 q 292 162 274 176 q 340 147 311 147 q 391 165 369 147 q 426 209 413 183 q 449 265 440 235 q 458 321 457 296 l 490 694 l 675 694 l 615 0 l 465 0 l 458 69 q 380 10 425 33 q 275 -12 335 -12 q 263 -12 268 -12 q 251 -11 257 -12 l 232 -236 l 47 -236 l 90 251 q 92 268 90 263 l 129 694 l 314 694 z "},"π":{"ha":811,"x_min":81,"x_max":808,"o":"m 144 0 l 190 536 l 81 536 l 94 694 l 808 694 l 794 536 l 667 536 l 640 232 q 638 208 639 219 q 638 193 638 196 q 647 163 638 174 q 679 153 656 153 q 701 154 690 153 q 717 157 711 156 l 704 4 q 658 -2 689 1 q 594 -6 626 -6 q 526 7 553 -6 q 483 41 499 19 q 460 92 467 63 q 454 154 454 121 q 455 183 454 165 q 457 211 456 200 l 485 536 l 375 536 l 329 0 l 144 0 z "},"€":{"ha":653,"x_min":49,"x_max":663,"o":"m 579 6 q 548 -1 568 3 q 506 -7 528 -4 q 460 -11 483 -10 q 421 -12 438 -12 q 310 2 358 -12 q 228 54 261 17 q 176 156 194 92 q 157 322 158 221 l 49 322 l 88 451 l 161 451 q 165 497 164 472 q 169 544 167 521 l 68 544 l 107 674 l 186 674 q 229 835 203 774 q 294 929 256 896 q 387 974 333 963 q 513 985 440 985 q 549 983 526 985 q 594 978 571 981 q 636 972 617 975 q 663 965 656 968 l 615 804 q 554 815 585 811 q 479 818 524 818 q 443 813 458 818 q 415 792 428 808 q 393 748 403 776 q 375 674 383 719 l 582 674 l 544 544 l 360 544 q 358 525 358 533 q 356 507 357 517 q 354 485 356 497 q 351 451 353 472 l 518 451 l 482 322 l 346 322 q 351 238 346 271 q 368 186 357 204 q 396 161 379 168 q 435 154 413 154 q 522 161 478 154 q 594 175 567 168 l 579 6 z "},"Ω":{"ha":789,"x_min":56,"x_max":756,"o":"m 324 0 l 56 0 l 68 150 l 131 150 q 93 381 93 240 q 94 403 93 388 q 95 438 94 419 q 97 474 96 457 q 99 497 99 490 q 130 711 110 619 q 191 864 150 803 q 298 956 232 925 q 467 986 364 986 q 602 964 547 986 q 691 898 657 942 q 740 788 725 854 q 756 635 756 722 q 730 350 756 478 q 665 150 704 222 l 721 150 l 708 0 l 440 0 l 453 150 q 490 188 474 163 q 517 253 506 213 q 538 351 529 293 q 554 490 547 410 q 563 651 563 589 q 556 742 563 707 q 536 799 550 778 q 502 828 522 819 q 453 836 482 836 q 389 822 415 836 q 344 770 363 808 q 313 665 325 732 q 290 490 300 597 q 282 331 282 394 q 295 208 282 250 q 336 150 308 167 l 324 0 z "},"∂":{"ha":653,"x_min":57,"x_max":633,"o":"m 60 292 q 82 438 67 374 q 128 547 97 503 q 206 615 158 592 q 326 638 254 638 q 393 627 363 638 q 450 601 424 617 q 451 626 450 614 q 451 650 451 639 q 444 740 451 704 q 422 795 438 775 q 381 824 406 815 q 319 832 356 832 q 233 826 271 832 q 167 813 194 819 l 179 968 q 208 974 190 971 q 248 979 226 976 q 290 983 269 982 q 328 985 311 985 q 456 969 399 985 q 552 912 513 953 q 613 801 592 871 q 633 624 633 731 q 633 601 633 618 q 631 564 632 583 q 629 526 631 544 q 628 501 628 508 q 592 252 615 351 q 530 94 569 153 q 432 12 490 36 q 288 -12 374 -12 q 215 -1 254 -12 q 140 38 175 10 q 81 117 104 67 q 57 246 57 167 q 58 268 57 257 q 60 292 58 279 m 346 488 q 243 243 243 488 q 261 160 243 181 q 318 140 279 140 q 360 151 342 140 q 392 195 378 161 q 418 293 407 229 q 439 464 429 357 q 397 481 419 474 q 346 488 374 488 z "},"∆":{"ha":750,"x_min":7,"x_max":715,"o":"m 7 0 l 315 972 l 586 972 l 715 0 l 7 0 m 440 825 l 247 157 l 508 157 l 440 825 z "},"∏":{"ha":825,"x_min":106,"x_max":847,"o":"m 707 813 l 657 232 q 655 208 656 219 q 654 193 654 196 q 663 163 654 174 q 696 153 672 153 q 717 154 707 153 q 733 157 728 156 l 721 4 q 672 -2 706 1 q 606 -6 638 -6 q 537 7 564 -6 q 494 41 510 19 q 472 92 478 63 q 465 154 465 121 q 466 183 465 165 q 468 211 467 200 l 521 813 l 403 813 l 332 0 l 144 0 l 215 813 l 106 813 l 119 972 l 847 972 l 833 813 l 707 813 z "},"∑":{"ha":653,"x_min":21,"x_max":646,"o":"m 21 -236 l 36 -50 l 307 371 l 128 785 l 144 972 l 646 972 l 632 813 l 322 813 l 508 371 l 224 -78 l 569 -78 l 556 -236 l 21 -236 z "},"∕":{"ha":319,"x_min":-164,"x_max":540,"o":"m 0 -139 l -164 -139 l 375 1125 l 540 1125 l 0 -139 z "},"∙":{"ha":347,"x_min":85,"x_max":308,"o":"m 85 339 l 100 519 l 308 519 l 293 339 l 85 339 z "},"√":{"ha":833,"x_min":61,"x_max":939,"o":"m 796 979 l 481 0 l 178 0 l 61 544 l 251 544 l 336 133 l 649 1139 l 939 1139 l 925 979 l 796 979 z "},"∞":{"ha":1014,"x_min":71,"x_max":992,"o":"m 354 700 q 453 678 401 700 q 538 610 506 657 q 621 674 571 649 q 753 700 671 700 q 933 642 875 700 q 992 489 992 585 q 978 379 992 429 q 931 293 964 329 q 843 237 897 257 q 710 217 789 217 q 609 238 661 217 q 525 306 557 260 q 442 242 492 268 q 311 217 392 217 q 130 275 189 217 q 71 429 71 333 q 85 538 71 489 q 133 624 100 588 q 221 680 167 660 q 354 700 275 700 m 725 360 q 795 388 764 360 q 826 474 826 415 q 801 537 826 517 q 743 557 776 557 q 657 535 693 557 q 614 444 621 513 q 631 402 618 418 q 658 376 643 386 q 691 363 674 367 q 725 360 708 360 m 339 557 q 303 550 321 557 q 270 530 285 543 q 247 496 256 517 q 238 447 238 475 q 263 381 238 403 q 321 360 288 360 q 407 382 371 360 q 449 472 443 404 q 433 515 444 499 q 406 541 421 532 q 373 553 390 550 q 339 557 356 557 z "},"∤":{"ha":347,"x_min":85,"x_max":308,"o":"m 85 339 l 100 519 l 308 519 l 293 339 l 85 339 z "},"∧":{"ha":347,"x_min":85,"x_max":308,"o":"m 85 339 l 100 519 l 308 519 l 293 339 l 85 339 z "},"∫":{"ha":458,"x_min":-76,"x_max":564,"o":"m 550 978 q 501 988 529 983 q 435 993 472 993 q 388 976 403 993 q 369 929 372 958 l 279 -108 q 257 -219 274 -175 q 211 -288 240 -262 q 140 -325 182 -314 q 39 -336 97 -336 q -22 -334 6 -336 q -76 -329 -49 -332 l -62 -174 q -20 -177 -46 -176 q 22 -178 6 -178 q 75 -165 60 -178 q 93 -115 90 -151 l 183 917 q 207 1033 190 988 q 253 1106 224 1079 q 322 1142 282 1132 q 414 1151 363 1151 q 501 1145 458 1151 q 564 1135 543 1139 l 550 978 z "},"≈":{"ha":708,"x_min":106,"x_max":644,"o":"m 140 601 q 226 639 192 631 q 290 647 260 647 q 349 639 321 647 q 403 620 376 631 q 456 601 429 610 q 508 593 482 593 q 578 607 544 593 q 644 640 613 621 l 631 474 q 559 440 597 453 q 482 428 521 428 q 423 437 450 428 q 371 456 396 446 q 320 476 346 467 q 265 485 294 485 q 194 469 229 485 q 126 435 158 454 l 140 601 m 119 367 q 205 404 171 396 q 269 413 239 413 q 328 404 300 413 q 382 385 356 396 q 435 367 408 375 q 488 358 461 358 q 558 372 524 358 q 624 406 592 386 l 610 239 q 538 206 576 218 q 461 193 500 193 q 402 202 429 193 q 350 222 375 211 q 299 241 325 232 q 244 250 274 250 q 173 235 208 250 q 106 200 138 219 l 119 367 z "},"≠":{"ha":764,"x_min":96,"x_max":713,"o":"m 353 201 l 269 69 l 96 69 l 179 201 l 107 201 l 121 361 l 279 361 l 354 479 l 132 479 l 146 639 l 456 639 l 539 771 l 713 771 l 629 639 l 701 639 l 688 479 l 528 479 l 453 361 l 676 361 l 663 201 l 353 201 z "},"≤":{"ha":764,"x_min":90,"x_max":717,"o":"m 90 0 l 104 160 l 660 160 l 646 0 l 90 0 m 122 367 l 142 593 l 717 810 l 700 625 l 286 482 l 678 371 l 661 189 l 122 367 z "},"≥":{"ha":764,"x_min":90,"x_max":697,"o":"m 90 0 l 104 160 l 660 160 l 646 0 l 90 0 m 106 189 l 122 376 l 533 488 l 144 631 l 161 810 l 697 593 l 678 367 l 106 189 z "},"⋅":{"ha":347,"x_min":85,"x_max":308,"o":"m 85 339 l 100 519 l 308 519 l 293 339 l 85 339 z "},"▯":{"ha":725,"x_min":76,"x_max":706,"o":"m 161 972 l 706 972 l 621 0 l 76 0 l 161 972 m 472 142 l 533 831 l 308 831 l 247 142 l 472 142 z "},"◊":{"ha":686,"x_min":63,"x_max":679,"o":"m 458 0 l 197 0 l 63 486 l 285 972 l 543 972 l 679 486 l 458 0 m 404 829 l 257 486 l 339 143 l 485 486 l 404 829 z "}}}
